<svg xmlns="http://www.w3.org/2000/svg" xmlns:xlink="http://www.w3.org/1999/xlink" width="200" zoomAndPan="magnify" viewBox="0 0 150 74.999997" height="100" preserveAspectRatio="xMidYMid meet" version="1.0"><defs><g/><clipPath id="ac0d813790"><path d="M 94 31 L 101 31 L 101 38 L 94 38 Z M 94 31 " clip-rule="nonzero"/></clipPath><clipPath id="0c3a7e6639"><path d="M 93.128906 32.195312 L 97.535156 28.121094 L 103.132812 34.179688 L 98.726562 38.253906 Z M 93.128906 32.195312 " clip-rule="nonzero"/></clipPath><clipPath id="ec6935341d"><path d="M 93.128906 32.195312 L 97.535156 28.121094 L 103.132812 34.179688 L 98.726562 38.253906 Z M 93.128906 32.195312 " clip-rule="nonzero"/></clipPath><clipPath id="d687ccbce4"><path d="M 97 28 L 104 28 L 104 35 L 97 35 Z M 97 28 " clip-rule="nonzero"/></clipPath><clipPath id="e64a1a9787"><path d="M 96.121094 29.429688 L 100.527344 25.355469 L 106.125 31.414062 L 101.71875 35.488281 Z M 96.121094 29.429688 " clip-rule="nonzero"/></clipPath><clipPath id="8d93bf1118"><path d="M 96.121094 29.429688 L 100.527344 25.355469 L 106.125 31.414062 L 101.71875 35.488281 Z M 96.121094 29.429688 " clip-rule="nonzero"/></clipPath></defs><g clip-path="url(#ac0d813790)"><g clip-path="url(#0c3a7e6639)"><g clip-path="url(#ec6935341d)"><path fill="#18cb96" d="M 100.195312 31.503906 L 95.140625 31.28125 C 94.164062 31.238281 94 33.140625 95.15625 33.171875 L 98.300781 33.253906 L 98.0625 36.421875 C 97.988281 37.382812 99.867188 37.488281 99.921875 36.507812 Z M 100.195312 31.503906 " fill-opacity="1" fill-rule="nonzero"/></g></g></g><g clip-path="url(#d687ccbce4)"><g clip-path="url(#e64a1a9787)"><g clip-path="url(#8d93bf1118)"><path fill="#18cb96" d="M 103.1875 28.738281 L 98.132812 28.515625 C 97.15625 28.472656 96.992188 30.375 98.148438 30.40625 L 101.292969 30.488281 L 101.054688 33.65625 C 100.980469 34.617188 102.859375 34.71875 102.914062 33.742188 Z M 103.1875 28.738281 " fill-opacity="1" fill-rule="nonzero"/></g></g></g><g fill="#ffffff" fill-opacity="1"><g transform="translate(54.543966, 41.990591)"><g><path d="M 2.609375 -2.65625 L 2.609375 -0.765625 C 2.609375 -0.503906 2.515625 -0.3125 2.328125 -0.1875 C 2.140625 -0.0625 1.941406 0 1.734375 0 C 1.515625 0 1.316406 -0.0625 1.140625 -0.1875 C 0.960938 -0.3125 0.875 -0.5 0.875 -0.75 L 0.875 -8.796875 C 0.875 -9.035156 0.957031 -9.222656 1.125 -9.359375 C 1.300781 -9.503906 1.507812 -9.578125 1.75 -9.578125 L 4.8125 -9.578125 C 5.644531 -9.578125 6.359375 -9.429688 6.953125 -9.140625 C 7.546875 -8.847656 7.992188 -8.4375 8.296875 -7.90625 C 8.609375 -7.375 8.765625 -6.753906 8.765625 -6.046875 C 8.765625 -5.035156 8.414062 -4.21875 7.71875 -3.59375 C 7.019531 -2.96875 6.035156 -2.65625 4.765625 -2.65625 Z M 2.609375 -8.09375 L 2.609375 -4.15625 L 4.765625 -4.15625 C 5.515625 -4.15625 6.082031 -4.328125 6.46875 -4.671875 C 6.863281 -5.015625 7.0625 -5.472656 7.0625 -6.046875 C 7.0625 -6.671875 6.863281 -7.164062 6.46875 -7.53125 C 6.082031 -7.90625 5.535156 -8.09375 4.828125 -8.09375 Z M 2.609375 -8.09375 "/></g></g></g><g fill="#ffffff" fill-opacity="1"><g transform="translate(63.601246, 41.990591)"><g><path d="M 4.0625 -7.65625 C 4.332031 -7.65625 4.546875 -7.597656 4.703125 -7.484375 C 4.867188 -7.367188 4.953125 -7.179688 4.953125 -6.921875 C 4.953125 -6.679688 4.867188 -6.488281 4.703125 -6.34375 C 4.546875 -6.207031 4.332031 -6.140625 4.0625 -6.140625 C 3.425781 -6.140625 2.976562 -5.910156 2.71875 -5.453125 C 2.46875 -5.003906 2.34375 -4.394531 2.34375 -3.625 L 2.34375 -0.765625 C 2.34375 -0.546875 2.257812 -0.363281 2.09375 -0.21875 C 1.9375 -0.0703125 1.742188 0 1.515625 0 C 1.253906 0 1.039062 -0.0703125 0.875 -0.21875 C 0.71875 -0.363281 0.640625 -0.546875 0.640625 -0.765625 L 0.640625 -6.890625 C 0.640625 -7.128906 0.734375 -7.316406 0.921875 -7.453125 C 1.109375 -7.585938 1.304688 -7.65625 1.515625 -7.65625 C 1.722656 -7.65625 1.910156 -7.585938 2.078125 -7.453125 C 2.253906 -7.328125 2.34375 -7.140625 2.34375 -6.890625 L 2.34375 -6.796875 C 2.5625 -7.085938 2.816406 -7.300781 3.109375 -7.4375 C 3.398438 -7.582031 3.71875 -7.65625 4.0625 -7.65625 Z M 4.0625 -7.65625 "/></g></g></g><g fill="#ffffff" fill-opacity="1"><g transform="translate(68.099728, 41.990591)"><g><path d="M 4.296875 -7.8125 C 5.097656 -7.8125 5.800781 -7.640625 6.40625 -7.296875 C 7.007812 -6.960938 7.476562 -6.492188 7.8125 -5.890625 C 8.144531 -5.296875 8.3125 -4.597656 8.3125 -3.796875 C 8.300781 -3.015625 8.125 -2.328125 7.78125 -1.734375 C 7.445312 -1.140625 6.976562 -0.675781 6.375 -0.34375 C 5.78125 -0.0078125 5.085938 0.15625 4.296875 0.15625 C 3.515625 0.15625 2.820312 -0.0078125 2.21875 -0.34375 C 1.625 -0.675781 1.15625 -1.140625 0.8125 -1.734375 C 0.476562 -2.328125 0.304688 -3.015625 0.296875 -3.796875 C 0.296875 -4.597656 0.460938 -5.296875 0.796875 -5.890625 C 1.140625 -6.492188 1.609375 -6.960938 2.203125 -7.296875 C 2.804688 -7.640625 3.503906 -7.8125 4.296875 -7.8125 Z M 4.296875 -1.359375 C 4.984375 -1.359375 5.53125 -1.582031 5.9375 -2.03125 C 6.34375 -2.476562 6.546875 -3.066406 6.546875 -3.796875 C 6.546875 -4.535156 6.34375 -5.132812 5.9375 -5.59375 C 5.53125 -6.0625 4.984375 -6.296875 4.296875 -6.296875 C 3.628906 -6.296875 3.085938 -6.0625 2.671875 -5.59375 C 2.265625 -5.132812 2.0625 -4.535156 2.0625 -3.796875 C 2.0625 -3.066406 2.265625 -2.476562 2.671875 -2.03125 C 3.085938 -1.582031 3.628906 -1.359375 4.296875 -1.359375 Z M 4.296875 -1.359375 "/></g></g></g><g fill="#ffffff" fill-opacity="1"><g transform="translate(76.449867, 41.990591)"><g><path d="M 2.609375 -8.125 L 2.609375 -5.125 L 7.421875 -5.125 C 7.679688 -5.125 7.875 -5.046875 8 -4.890625 C 8.132812 -4.742188 8.203125 -4.578125 8.203125 -4.390625 C 8.203125 -4.210938 8.132812 -4.050781 8 -3.90625 C 7.875 -3.757812 7.679688 -3.6875 7.421875 -3.6875 L 2.609375 -3.6875 L 2.609375 -0.8125 C 2.609375 -0.550781 2.515625 -0.347656 2.328125 -0.203125 C 2.148438 -0.0664062 1.957031 0 1.75 0 C 1.53125 0 1.328125 -0.0664062 1.140625 -0.203125 C 0.960938 -0.347656 0.875 -0.546875 0.875 -0.796875 L 0.875 -8.703125 C 0.875 -8.941406 0.96875 -9.144531 1.15625 -9.3125 C 1.351562 -9.488281 1.582031 -9.578125 1.84375 -9.578125 L 7.6875 -9.578125 C 7.957031 -9.578125 8.15625 -9.503906 8.28125 -9.359375 C 8.414062 -9.210938 8.484375 -9.039062 8.484375 -8.84375 C 8.484375 -8.664062 8.414062 -8.5 8.28125 -8.34375 C 8.15625 -8.195312 7.957031 -8.125 7.6875 -8.125 Z M 2.609375 -8.125 "/></g></g></g><g fill="#ffffff" fill-opacity="1"><g transform="translate(85.161099, 41.990591)"><g><path d="M 2.25 -8.78125 C 2.25 -8.53125 2.15625 -8.34375 1.96875 -8.21875 C 1.789062 -8.09375 1.597656 -8.03125 1.390625 -8.03125 C 1.160156 -8.03125 0.957031 -8.09375 0.78125 -8.21875 C 0.601562 -8.34375 0.515625 -8.53125 0.515625 -8.78125 L 0.515625 -8.984375 C 0.515625 -9.242188 0.601562 -9.429688 0.78125 -9.546875 C 0.957031 -9.671875 1.160156 -9.734375 1.390625 -9.734375 C 1.597656 -9.734375 1.789062 -9.671875 1.96875 -9.546875 C 2.15625 -9.429688 2.25 -9.242188 2.25 -8.984375 Z M 0.53125 -6.921875 C 0.53125 -7.160156 0.617188 -7.34375 0.796875 -7.46875 C 0.984375 -7.59375 1.179688 -7.65625 1.390625 -7.65625 C 1.597656 -7.65625 1.789062 -7.59375 1.96875 -7.46875 C 2.144531 -7.34375 2.234375 -7.164062 2.234375 -6.9375 L 2.234375 -0.734375 C 2.234375 -0.484375 2.144531 -0.296875 1.96875 -0.171875 C 1.789062 -0.0546875 1.597656 0 1.390625 0 C 1.179688 0 0.984375 -0.0546875 0.796875 -0.171875 C 0.617188 -0.296875 0.53125 -0.484375 0.53125 -0.734375 Z M 0.53125 -6.921875 "/></g></g></g><g fill="#ffffff" fill-opacity="1"><g transform="translate(87.628433, 41.990591)"><g><path d="M 6.953125 -1.421875 C 7.148438 -1.203125 7.238281 -0.984375 7.21875 -0.765625 C 7.207031 -0.546875 7.125 -0.363281 6.96875 -0.21875 C 6.820312 -0.0703125 6.644531 0 6.4375 0 C 6.207031 0 5.984375 -0.109375 5.765625 -0.328125 L 3.609375 -2.65625 L 1.46875 -0.359375 C 1.238281 -0.117188 0.988281 0 0.71875 0 C 0.519531 0 0.34375 -0.0664062 0.1875 -0.203125 C 0.0390625 -0.335938 -0.0351562 -0.503906 -0.046875 -0.703125 C -0.0546875 -0.910156 0.0351562 -1.128906 0.234375 -1.359375 L 2.5625 -3.859375 L 0.296875 -6.296875 C 0.0976562 -6.515625 0.00390625 -6.726562 0.015625 -6.9375 C 0.0234375 -7.144531 0.109375 -7.316406 0.265625 -7.453125 C 0.421875 -7.585938 0.601562 -7.65625 0.8125 -7.65625 C 0.945312 -7.65625 1.082031 -7.625 1.21875 -7.5625 C 1.351562 -7.507812 1.484375 -7.410156 1.609375 -7.265625 L 3.640625 -5.078125 L 5.703125 -7.296875 C 5.828125 -7.429688 5.953125 -7.523438 6.078125 -7.578125 C 6.210938 -7.628906 6.335938 -7.65625 6.453125 -7.65625 C 6.660156 -7.65625 6.835938 -7.585938 6.984375 -7.453125 C 7.140625 -7.328125 7.222656 -7.160156 7.234375 -6.953125 C 7.242188 -6.753906 7.144531 -6.535156 6.9375 -6.296875 L 4.671875 -3.875 Z M 6.953125 -1.421875 "/></g></g></g><g fill="#ffffff" fill-opacity="1"><g transform="translate(43.013425, 47.858293)"><g><path d="M 1.34375 0.03125 C 1.132812 0.03125 0.945312 -0.00390625 0.78125 -0.078125 C 0.625 -0.148438 0.5 -0.25 0.40625 -0.375 C 0.320312 -0.507812 0.269531 -0.65625 0.25 -0.8125 L 0.484375 -0.8125 C 0.503906 -0.644531 0.582031 -0.492188 0.71875 -0.359375 C 0.851562 -0.222656 1.0625 -0.15625 1.34375 -0.15625 C 1.507812 -0.15625 1.648438 -0.179688 1.765625 -0.234375 C 1.890625 -0.296875 1.984375 -0.378906 2.046875 -0.484375 C 2.117188 -0.585938 2.15625 -0.703125 2.15625 -0.828125 C 2.15625 -0.992188 2.113281 -1.125 2.03125 -1.21875 C 1.957031 -1.3125 1.863281 -1.378906 1.75 -1.421875 C 1.632812 -1.472656 1.476562 -1.523438 1.28125 -1.578125 C 1.070312 -1.640625 0.898438 -1.695312 0.765625 -1.75 C 0.640625 -1.8125 0.53125 -1.898438 0.4375 -2.015625 C 0.34375 -2.128906 0.296875 -2.289062 0.296875 -2.5 C 0.296875 -2.65625 0.335938 -2.796875 0.421875 -2.921875 C 0.503906 -3.054688 0.625 -3.160156 0.78125 -3.234375 C 0.9375 -3.316406 1.117188 -3.359375 1.328125 -3.359375 C 1.617188 -3.359375 1.851562 -3.285156 2.03125 -3.140625 C 2.207031 -2.992188 2.316406 -2.816406 2.359375 -2.609375 L 2.125 -2.609375 C 2.101562 -2.691406 2.0625 -2.773438 2 -2.859375 C 1.9375 -2.953125 1.84375 -3.023438 1.71875 -3.078125 C 1.601562 -3.140625 1.460938 -3.171875 1.296875 -3.171875 C 1.078125 -3.171875 0.890625 -3.109375 0.734375 -2.984375 C 0.585938 -2.867188 0.515625 -2.707031 0.515625 -2.5 C 0.515625 -2.34375 0.550781 -2.210938 0.625 -2.109375 C 0.707031 -2.015625 0.804688 -1.941406 0.921875 -1.890625 C 1.035156 -1.847656 1.191406 -1.800781 1.390625 -1.75 C 1.609375 -1.6875 1.78125 -1.628906 1.90625 -1.578125 C 2.039062 -1.523438 2.148438 -1.4375 2.234375 -1.3125 C 2.328125 -1.195312 2.375 -1.039062 2.375 -0.84375 C 2.375 -0.6875 2.332031 -0.539062 2.25 -0.40625 C 2.175781 -0.28125 2.0625 -0.175781 1.90625 -0.09375 C 1.75 -0.0078125 1.5625 0.03125 1.34375 0.03125 Z M 1.34375 0.03125 "/></g></g></g><g fill="#ffffff" fill-opacity="1"><g transform="translate(45.455683, 47.858293)"><g><path d="M 2.703125 -1.453125 C 2.703125 -1.335938 2.695312 -1.253906 2.6875 -1.203125 L 0.46875 -1.203125 C 0.476562 -0.972656 0.53125 -0.78125 0.625 -0.625 C 0.71875 -0.46875 0.84375 -0.347656 1 -0.265625 C 1.15625 -0.179688 1.320312 -0.140625 1.5 -0.140625 C 1.757812 -0.140625 1.972656 -0.203125 2.140625 -0.328125 C 2.304688 -0.453125 2.414062 -0.625 2.46875 -0.84375 L 2.6875 -0.84375 C 2.632812 -0.582031 2.503906 -0.367188 2.296875 -0.203125 C 2.085938 -0.046875 1.820312 0.03125 1.5 0.03125 C 1.257812 0.03125 1.046875 -0.0195312 0.859375 -0.125 C 0.671875 -0.226562 0.519531 -0.378906 0.40625 -0.578125 C 0.300781 -0.785156 0.25 -1.019531 0.25 -1.28125 C 0.25 -1.550781 0.300781 -1.785156 0.40625 -1.984375 C 0.519531 -2.179688 0.671875 -2.332031 0.859375 -2.4375 C 1.046875 -2.550781 1.257812 -2.609375 1.5 -2.609375 C 1.75 -2.609375 1.960938 -2.550781 2.140625 -2.4375 C 2.328125 -2.332031 2.46875 -2.191406 2.5625 -2.015625 C 2.65625 -1.847656 2.703125 -1.660156 2.703125 -1.453125 Z M 2.484375 -1.375 C 2.492188 -1.601562 2.453125 -1.796875 2.359375 -1.953125 C 2.273438 -2.109375 2.15625 -2.222656 2 -2.296875 C 1.84375 -2.378906 1.675781 -2.421875 1.5 -2.421875 C 1.320312 -2.421875 1.15625 -2.378906 1 -2.296875 C 0.84375 -2.222656 0.71875 -2.109375 0.625 -1.953125 C 0.53125 -1.796875 0.476562 -1.601562 0.46875 -1.375 Z M 2.484375 -1.375 "/></g></g></g><g fill="#ffffff" fill-opacity="1"><g transform="translate(48.233996, 47.858293)"><g><path d="M 2.5625 -2.578125 L 2.5625 0 L 2.34375 0 L 2.34375 -0.5625 C 2.269531 -0.363281 2.148438 -0.210938 1.984375 -0.109375 C 1.816406 -0.00390625 1.625 0.046875 1.40625 0.046875 C 1.101562 0.046875 0.851562 -0.046875 0.65625 -0.234375 C 0.457031 -0.421875 0.359375 -0.703125 0.359375 -1.078125 L 0.359375 -2.578125 L 0.578125 -2.578125 L 0.578125 -1.09375 C 0.578125 -0.78125 0.648438 -0.539062 0.796875 -0.375 C 0.953125 -0.21875 1.164062 -0.140625 1.4375 -0.140625 C 1.707031 -0.140625 1.925781 -0.226562 2.09375 -0.40625 C 2.257812 -0.582031 2.34375 -0.84375 2.34375 -1.1875 L 2.34375 -2.578125 Z M 2.5625 -2.578125 "/></g></g></g><g fill="#ffffff" fill-opacity="1"><g transform="translate(51.002844, 47.858293)"><g/></g></g><g fill="#ffffff" fill-opacity="1"><g transform="translate(52.157685, 47.858293)"><g><path d="M 0.59375 -1.890625 C 0.664062 -2.097656 0.796875 -2.269531 0.984375 -2.40625 C 1.179688 -2.539062 1.414062 -2.609375 1.6875 -2.609375 C 1.925781 -2.609375 2.140625 -2.550781 2.328125 -2.4375 C 2.515625 -2.332031 2.660156 -2.179688 2.765625 -1.984375 C 2.878906 -1.785156 2.9375 -1.550781 2.9375 -1.28125 C 2.9375 -1.019531 2.878906 -0.785156 2.765625 -0.578125 C 2.660156 -0.378906 2.515625 -0.226562 2.328125 -0.125 C 2.140625 -0.0195312 1.925781 0.03125 1.6875 0.03125 C 1.414062 0.03125 1.1875 -0.03125 1 -0.15625 C 0.8125 -0.289062 0.675781 -0.460938 0.59375 -0.671875 L 0.59375 1.21875 L 0.390625 1.21875 L 0.390625 -2.578125 L 0.59375 -2.578125 Z M 2.71875 -1.28125 C 2.71875 -1.519531 2.671875 -1.722656 2.578125 -1.890625 C 2.492188 -2.066406 2.367188 -2.195312 2.203125 -2.28125 C 2.046875 -2.375 1.863281 -2.421875 1.65625 -2.421875 C 1.457031 -2.421875 1.273438 -2.375 1.109375 -2.28125 C 0.953125 -2.1875 0.828125 -2.050781 0.734375 -1.875 C 0.640625 -1.707031 0.59375 -1.507812 0.59375 -1.28125 C 0.59375 -1.0625 0.640625 -0.863281 0.734375 -0.6875 C 0.828125 -0.519531 0.953125 -0.390625 1.109375 -0.296875 C 1.273438 -0.203125 1.457031 -0.15625 1.65625 -0.15625 C 1.863281 -0.15625 2.046875 -0.195312 2.203125 -0.28125 C 2.367188 -0.375 2.492188 -0.503906 2.578125 -0.671875 C 2.671875 -0.847656 2.71875 -1.050781 2.71875 -1.28125 Z M 2.71875 -1.28125 "/></g></g></g><g fill="#ffffff" fill-opacity="1"><g transform="translate(55.163189, 47.858293)"><g><path d="M 0.59375 -2.046875 C 0.664062 -2.234375 0.78125 -2.375 0.9375 -2.46875 C 1.09375 -2.570312 1.296875 -2.625 1.546875 -2.625 L 1.546875 -2.40625 L 1.484375 -2.40625 C 1.234375 -2.40625 1.019531 -2.332031 0.84375 -2.1875 C 0.675781 -2.039062 0.59375 -1.804688 0.59375 -1.484375 L 0.59375 0 L 0.390625 0 L 0.390625 -2.578125 L 0.59375 -2.578125 Z M 0.59375 -2.046875 "/></g></g></g><g fill="#ffffff" fill-opacity="1"><g transform="translate(56.639883, 47.858293)"><g><path d="M 1.515625 0.03125 C 1.273438 0.03125 1.054688 -0.0195312 0.859375 -0.125 C 0.671875 -0.226562 0.519531 -0.378906 0.40625 -0.578125 C 0.300781 -0.785156 0.25 -1.019531 0.25 -1.28125 C 0.25 -1.550781 0.304688 -1.785156 0.421875 -1.984375 C 0.535156 -2.179688 0.6875 -2.332031 0.875 -2.4375 C 1.070312 -2.550781 1.289062 -2.609375 1.53125 -2.609375 C 1.769531 -2.609375 1.984375 -2.550781 2.171875 -2.4375 C 2.367188 -2.332031 2.519531 -2.179688 2.625 -1.984375 C 2.738281 -1.785156 2.796875 -1.550781 2.796875 -1.28125 C 2.796875 -1.019531 2.738281 -0.785156 2.625 -0.578125 C 2.519531 -0.378906 2.367188 -0.226562 2.171875 -0.125 C 1.972656 -0.0195312 1.753906 0.03125 1.515625 0.03125 Z M 1.515625 -0.15625 C 1.703125 -0.15625 1.875 -0.195312 2.03125 -0.28125 C 2.195312 -0.363281 2.328125 -0.488281 2.421875 -0.65625 C 2.523438 -0.820312 2.578125 -1.03125 2.578125 -1.28125 C 2.578125 -1.53125 2.523438 -1.738281 2.421875 -1.90625 C 2.328125 -2.082031 2.195312 -2.210938 2.03125 -2.296875 C 1.875 -2.378906 1.707031 -2.421875 1.53125 -2.421875 C 1.34375 -2.421875 1.164062 -2.378906 1 -2.296875 C 0.84375 -2.210938 0.710938 -2.082031 0.609375 -1.90625 C 0.515625 -1.738281 0.46875 -1.53125 0.46875 -1.28125 C 0.46875 -1.03125 0.515625 -0.820312 0.609375 -0.65625 C 0.710938 -0.488281 0.84375 -0.363281 1 -0.28125 C 1.15625 -0.195312 1.328125 -0.15625 1.515625 -0.15625 Z M 1.515625 -0.15625 "/></g></g></g><g fill="#ffffff" fill-opacity="1"><g transform="translate(59.512857, 47.858293)"><g><path d="M 0.59375 -1.890625 C 0.675781 -2.097656 0.8125 -2.269531 1 -2.40625 C 1.1875 -2.539062 1.414062 -2.609375 1.6875 -2.609375 C 1.925781 -2.609375 2.140625 -2.550781 2.328125 -2.4375 C 2.515625 -2.332031 2.660156 -2.179688 2.765625 -1.984375 C 2.878906 -1.785156 2.9375 -1.550781 2.9375 -1.28125 C 2.9375 -1.019531 2.878906 -0.785156 2.765625 -0.578125 C 2.660156 -0.378906 2.515625 -0.226562 2.328125 -0.125 C 2.140625 -0.0195312 1.925781 0.03125 1.6875 0.03125 C 1.414062 0.03125 1.1875 -0.03125 1 -0.15625 C 0.8125 -0.289062 0.675781 -0.460938 0.59375 -0.671875 L 0.59375 0 L 0.390625 0 L 0.390625 -3.5 L 0.59375 -3.5 Z M 2.71875 -1.28125 C 2.71875 -1.519531 2.671875 -1.722656 2.578125 -1.890625 C 2.492188 -2.066406 2.367188 -2.195312 2.203125 -2.28125 C 2.046875 -2.375 1.863281 -2.421875 1.65625 -2.421875 C 1.457031 -2.421875 1.273438 -2.375 1.109375 -2.28125 C 0.953125 -2.1875 0.828125 -2.050781 0.734375 -1.875 C 0.640625 -1.707031 0.59375 -1.507812 0.59375 -1.28125 C 0.59375 -1.0625 0.640625 -0.863281 0.734375 -0.6875 C 0.828125 -0.519531 0.953125 -0.390625 1.109375 -0.296875 C 1.273438 -0.203125 1.457031 -0.15625 1.65625 -0.15625 C 1.863281 -0.15625 2.046875 -0.195312 2.203125 -0.28125 C 2.367188 -0.375 2.492188 -0.503906 2.578125 -0.671875 C 2.671875 -0.847656 2.71875 -1.050781 2.71875 -1.28125 Z M 2.71875 -1.28125 "/></g></g></g><g fill="#ffffff" fill-opacity="1"><g transform="translate(62.518362, 47.858293)"><g><path d="M 0.59375 -3.5 L 0.59375 0 L 0.390625 0 L 0.390625 -3.5 Z M 0.59375 -3.5 "/></g></g></g><g fill="#ffffff" fill-opacity="1"><g transform="translate(63.332414, 47.858293)"><g><path d="M 2.703125 -1.453125 C 2.703125 -1.335938 2.695312 -1.253906 2.6875 -1.203125 L 0.46875 -1.203125 C 0.476562 -0.972656 0.53125 -0.78125 0.625 -0.625 C 0.71875 -0.46875 0.84375 -0.347656 1 -0.265625 C 1.15625 -0.179688 1.320312 -0.140625 1.5 -0.140625 C 1.757812 -0.140625 1.972656 -0.203125 2.140625 -0.328125 C 2.304688 -0.453125 2.414062 -0.625 2.46875 -0.84375 L 2.6875 -0.84375 C 2.632812 -0.582031 2.503906 -0.367188 2.296875 -0.203125 C 2.085938 -0.046875 1.820312 0.03125 1.5 0.03125 C 1.257812 0.03125 1.046875 -0.0195312 0.859375 -0.125 C 0.671875 -0.226562 0.519531 -0.378906 0.40625 -0.578125 C 0.300781 -0.785156 0.25 -1.019531 0.25 -1.28125 C 0.25 -1.550781 0.300781 -1.785156 0.40625 -1.984375 C 0.519531 -2.179688 0.671875 -2.332031 0.859375 -2.4375 C 1.046875 -2.550781 1.257812 -2.609375 1.5 -2.609375 C 1.75 -2.609375 1.960938 -2.550781 2.140625 -2.4375 C 2.328125 -2.332031 2.46875 -2.191406 2.5625 -2.015625 C 2.65625 -1.847656 2.703125 -1.660156 2.703125 -1.453125 Z M 2.484375 -1.375 C 2.492188 -1.601562 2.453125 -1.796875 2.359375 -1.953125 C 2.273438 -2.109375 2.15625 -2.222656 2 -2.296875 C 1.84375 -2.378906 1.675781 -2.421875 1.5 -2.421875 C 1.320312 -2.421875 1.15625 -2.378906 1 -2.296875 C 0.84375 -2.222656 0.71875 -2.109375 0.625 -1.953125 C 0.53125 -1.796875 0.476562 -1.601562 0.46875 -1.375 Z M 2.484375 -1.375 "/></g></g></g><g fill="#ffffff" fill-opacity="1"><g transform="translate(66.110727, 47.858293)"><g><path d="M 3.421875 -2.625 C 3.722656 -2.625 3.960938 -2.53125 4.140625 -2.34375 C 4.328125 -2.15625 4.421875 -1.875 4.421875 -1.5 L 4.421875 0 L 4.21875 0 L 4.21875 -1.484375 C 4.21875 -1.796875 4.144531 -2.03125 4 -2.1875 C 3.851562 -2.351562 3.648438 -2.4375 3.390625 -2.4375 C 3.128906 -2.4375 2.914062 -2.34375 2.75 -2.15625 C 2.59375 -1.976562 2.515625 -1.71875 2.515625 -1.375 L 2.515625 0 L 2.3125 0 L 2.3125 -1.484375 C 2.3125 -1.796875 2.234375 -2.03125 2.078125 -2.1875 C 1.929688 -2.351562 1.734375 -2.4375 1.484375 -2.4375 C 1.210938 -2.4375 0.992188 -2.34375 0.828125 -2.15625 C 0.671875 -1.976562 0.59375 -1.71875 0.59375 -1.375 L 0.59375 0 L 0.390625 0 L 0.390625 -2.578125 L 0.59375 -2.578125 L 0.59375 -2.015625 C 0.664062 -2.210938 0.785156 -2.363281 0.953125 -2.46875 C 1.117188 -2.570312 1.304688 -2.625 1.515625 -2.625 C 1.742188 -2.625 1.941406 -2.5625 2.109375 -2.4375 C 2.285156 -2.320312 2.40625 -2.144531 2.46875 -1.90625 C 2.53125 -2.144531 2.644531 -2.320312 2.8125 -2.4375 C 2.988281 -2.5625 3.191406 -2.625 3.421875 -2.625 Z M 3.421875 -2.625 "/></g></g></g><g fill="#ffffff" fill-opacity="1"><g transform="translate(70.725501, 47.858293)"><g><path d="M 0.25 -1.28125 C 0.25 -1.550781 0.300781 -1.785156 0.40625 -1.984375 C 0.519531 -2.179688 0.671875 -2.332031 0.859375 -2.4375 C 1.046875 -2.550781 1.257812 -2.609375 1.5 -2.609375 C 1.769531 -2.609375 2 -2.539062 2.1875 -2.40625 C 2.375 -2.269531 2.503906 -2.101562 2.578125 -1.90625 L 2.578125 -2.578125 L 2.796875 -2.578125 L 2.796875 0 L 2.578125 0 L 2.578125 -0.671875 C 2.503906 -0.460938 2.375 -0.289062 2.1875 -0.15625 C 2 -0.03125 1.769531 0.03125 1.5 0.03125 C 1.257812 0.03125 1.046875 -0.0195312 0.859375 -0.125 C 0.671875 -0.226562 0.519531 -0.378906 0.40625 -0.578125 C 0.300781 -0.785156 0.25 -1.019531 0.25 -1.28125 Z M 2.578125 -1.28125 C 2.578125 -1.507812 2.53125 -1.707031 2.4375 -1.875 C 2.351562 -2.050781 2.226562 -2.1875 2.0625 -2.28125 C 1.90625 -2.375 1.726562 -2.421875 1.53125 -2.421875 C 1.320312 -2.421875 1.132812 -2.375 0.96875 -2.28125 C 0.8125 -2.195312 0.6875 -2.066406 0.59375 -1.890625 C 0.507812 -1.722656 0.46875 -1.519531 0.46875 -1.28125 C 0.46875 -1.050781 0.507812 -0.847656 0.59375 -0.671875 C 0.6875 -0.503906 0.8125 -0.375 0.96875 -0.28125 C 1.132812 -0.195312 1.320312 -0.15625 1.53125 -0.15625 C 1.726562 -0.15625 1.90625 -0.203125 2.0625 -0.296875 C 2.226562 -0.390625 2.351562 -0.519531 2.4375 -0.6875 C 2.53125 -0.863281 2.578125 -1.0625 2.578125 -1.28125 Z M 2.578125 -1.28125 "/></g></g></g><g fill="#ffffff" fill-opacity="1"><g transform="translate(73.731006, 47.858293)"><g><path d="M 0.53125 -0.5 L 0.078125 0.71875 L -0.078125 0.71875 L 0.28125 -0.5 Z M 0.53125 -0.5 "/></g></g></g><g fill="#ffffff" fill-opacity="1"><g transform="translate(74.22794, 47.858293)"><g/></g></g><g fill="#ffffff" fill-opacity="1"><g transform="translate(75.38278, 47.858293)"><g><path d="M 1.546875 -2.625 C 1.847656 -2.625 2.09375 -2.53125 2.28125 -2.34375 C 2.476562 -2.15625 2.578125 -1.875 2.578125 -1.5 L 2.578125 0 L 2.375 0 L 2.375 -1.484375 C 2.375 -1.796875 2.296875 -2.03125 2.140625 -2.1875 C 1.984375 -2.351562 1.773438 -2.4375 1.515625 -2.4375 C 1.234375 -2.4375 1.007812 -2.347656 0.84375 -2.171875 C 0.675781 -1.992188 0.59375 -1.734375 0.59375 -1.390625 L 0.59375 0 L 0.390625 0 L 0.390625 -2.578125 L 0.59375 -2.578125 L 0.59375 -2.03125 C 0.664062 -2.21875 0.785156 -2.363281 0.953125 -2.46875 C 1.128906 -2.570312 1.328125 -2.625 1.546875 -2.625 Z M 1.546875 -2.625 "/></g></g></g><g fill="#ffffff" fill-opacity="1"><g transform="translate(78.151627, 47.858293)"><g><path d="M 1.515625 0.03125 C 1.273438 0.03125 1.054688 -0.0195312 0.859375 -0.125 C 0.671875 -0.226562 0.519531 -0.378906 0.40625 -0.578125 C 0.300781 -0.785156 0.25 -1.019531 0.25 -1.28125 C 0.25 -1.550781 0.304688 -1.785156 0.421875 -1.984375 C 0.535156 -2.179688 0.6875 -2.332031 0.875 -2.4375 C 1.070312 -2.550781 1.289062 -2.609375 1.53125 -2.609375 C 1.769531 -2.609375 1.984375 -2.550781 2.171875 -2.4375 C 2.367188 -2.332031 2.519531 -2.179688 2.625 -1.984375 C 2.738281 -1.785156 2.796875 -1.550781 2.796875 -1.28125 C 2.796875 -1.019531 2.738281 -0.785156 2.625 -0.578125 C 2.519531 -0.378906 2.367188 -0.226562 2.171875 -0.125 C 1.972656 -0.0195312 1.753906 0.03125 1.515625 0.03125 Z M 1.515625 -0.15625 C 1.703125 -0.15625 1.875 -0.195312 2.03125 -0.28125 C 2.195312 -0.363281 2.328125 -0.488281 2.421875 -0.65625 C 2.523438 -0.820312 2.578125 -1.03125 2.578125 -1.28125 C 2.578125 -1.53125 2.523438 -1.738281 2.421875 -1.90625 C 2.328125 -2.082031 2.195312 -2.210938 2.03125 -2.296875 C 1.875 -2.378906 1.707031 -2.421875 1.53125 -2.421875 C 1.34375 -2.421875 1.164062 -2.378906 1 -2.296875 C 0.84375 -2.210938 0.710938 -2.082031 0.609375 -1.90625 C 0.515625 -1.738281 0.46875 -1.53125 0.46875 -1.28125 C 0.46875 -1.03125 0.515625 -0.820312 0.609375 -0.65625 C 0.710938 -0.488281 0.84375 -0.363281 1 -0.28125 C 1.15625 -0.195312 1.328125 -0.15625 1.515625 -0.15625 Z M 1.515625 -0.15625 "/></g></g></g><g fill="#ffffff" fill-opacity="1"><g transform="translate(81.024601, 47.858293)"><g><path d="M 1.25 0.03125 C 0.957031 0.03125 0.71875 -0.03125 0.53125 -0.15625 C 0.351562 -0.28125 0.253906 -0.457031 0.234375 -0.6875 L 0.453125 -0.6875 C 0.472656 -0.519531 0.550781 -0.382812 0.6875 -0.28125 C 0.820312 -0.1875 1.007812 -0.140625 1.25 -0.140625 C 1.4375 -0.140625 1.585938 -0.1875 1.703125 -0.28125 C 1.828125 -0.382812 1.890625 -0.507812 1.890625 -0.65625 C 1.890625 -0.757812 1.859375 -0.84375 1.796875 -0.90625 C 1.734375 -0.976562 1.65625 -1.03125 1.5625 -1.0625 C 1.46875 -1.09375 1.34375 -1.128906 1.1875 -1.171875 C 1 -1.222656 0.84375 -1.269531 0.71875 -1.3125 C 0.601562 -1.363281 0.503906 -1.4375 0.421875 -1.53125 C 0.347656 -1.632812 0.3125 -1.769531 0.3125 -1.9375 C 0.3125 -2.050781 0.347656 -2.160156 0.421875 -2.265625 C 0.492188 -2.367188 0.59375 -2.453125 0.71875 -2.515625 C 0.84375 -2.578125 0.988281 -2.609375 1.15625 -2.609375 C 1.425781 -2.609375 1.644531 -2.539062 1.8125 -2.40625 C 1.976562 -2.269531 2.066406 -2.082031 2.078125 -1.84375 L 1.859375 -1.84375 C 1.847656 -2.019531 1.78125 -2.160156 1.65625 -2.265625 C 1.539062 -2.367188 1.375 -2.421875 1.15625 -2.421875 C 0.96875 -2.421875 0.8125 -2.375 0.6875 -2.28125 C 0.570312 -2.1875 0.515625 -2.070312 0.515625 -1.9375 C 0.515625 -1.8125 0.546875 -1.710938 0.609375 -1.640625 C 0.679688 -1.566406 0.765625 -1.507812 0.859375 -1.46875 C 0.960938 -1.4375 1.097656 -1.394531 1.265625 -1.34375 C 1.441406 -1.300781 1.582031 -1.253906 1.6875 -1.203125 C 1.800781 -1.160156 1.894531 -1.09375 1.96875 -1 C 2.050781 -0.914062 2.09375 -0.800781 2.09375 -0.65625 C 2.09375 -0.53125 2.054688 -0.410156 1.984375 -0.296875 C 1.910156 -0.191406 1.804688 -0.109375 1.671875 -0.046875 C 1.546875 0.00390625 1.40625 0.03125 1.25 0.03125 Z M 1.25 0.03125 "/></g></g></g><g fill="#ffffff" fill-opacity="1"><g transform="translate(83.19707, 47.858293)"><g><path d="M 1.25 0.03125 C 0.957031 0.03125 0.71875 -0.03125 0.53125 -0.15625 C 0.351562 -0.28125 0.253906 -0.457031 0.234375 -0.6875 L 0.453125 -0.6875 C 0.472656 -0.519531 0.550781 -0.382812 0.6875 -0.28125 C 0.820312 -0.1875 1.007812 -0.140625 1.25 -0.140625 C 1.4375 -0.140625 1.585938 -0.1875 1.703125 -0.28125 C 1.828125 -0.382812 1.890625 -0.507812 1.890625 -0.65625 C 1.890625 -0.757812 1.859375 -0.84375 1.796875 -0.90625 C 1.734375 -0.976562 1.65625 -1.03125 1.5625 -1.0625 C 1.46875 -1.09375 1.34375 -1.128906 1.1875 -1.171875 C 1 -1.222656 0.84375 -1.269531 0.71875 -1.3125 C 0.601562 -1.363281 0.503906 -1.4375 0.421875 -1.53125 C 0.347656 -1.632812 0.3125 -1.769531 0.3125 -1.9375 C 0.3125 -2.050781 0.347656 -2.160156 0.421875 -2.265625 C 0.492188 -2.367188 0.59375 -2.453125 0.71875 -2.515625 C 0.84375 -2.578125 0.988281 -2.609375 1.15625 -2.609375 C 1.425781 -2.609375 1.644531 -2.539062 1.8125 -2.40625 C 1.976562 -2.269531 2.066406 -2.082031 2.078125 -1.84375 L 1.859375 -1.84375 C 1.847656 -2.019531 1.78125 -2.160156 1.65625 -2.265625 C 1.539062 -2.367188 1.375 -2.421875 1.15625 -2.421875 C 0.96875 -2.421875 0.8125 -2.375 0.6875 -2.28125 C 0.570312 -2.1875 0.515625 -2.070312 0.515625 -1.9375 C 0.515625 -1.8125 0.546875 -1.710938 0.609375 -1.640625 C 0.679688 -1.566406 0.765625 -1.507812 0.859375 -1.46875 C 0.960938 -1.4375 1.097656 -1.394531 1.265625 -1.34375 C 1.441406 -1.300781 1.582031 -1.253906 1.6875 -1.203125 C 1.800781 -1.160156 1.894531 -1.09375 1.96875 -1 C 2.050781 -0.914062 2.09375 -0.800781 2.09375 -0.65625 C 2.09375 -0.53125 2.054688 -0.410156 1.984375 -0.296875 C 1.910156 -0.191406 1.804688 -0.109375 1.671875 -0.046875 C 1.546875 0.00390625 1.40625 0.03125 1.25 0.03125 Z M 1.25 0.03125 "/></g></g></g><g fill="#ffffff" fill-opacity="1"><g transform="translate(85.369539, 47.858293)"><g><path d="M 0.25 -1.28125 C 0.25 -1.550781 0.300781 -1.785156 0.40625 -1.984375 C 0.519531 -2.179688 0.671875 -2.332031 0.859375 -2.4375 C 1.046875 -2.550781 1.257812 -2.609375 1.5 -2.609375 C 1.769531 -2.609375 2 -2.539062 2.1875 -2.40625 C 2.375 -2.269531 2.503906 -2.101562 2.578125 -1.90625 L 2.578125 -2.578125 L 2.796875 -2.578125 L 2.796875 0 L 2.578125 0 L 2.578125 -0.671875 C 2.503906 -0.460938 2.375 -0.289062 2.1875 -0.15625 C 2 -0.03125 1.769531 0.03125 1.5 0.03125 C 1.257812 0.03125 1.046875 -0.0195312 0.859375 -0.125 C 0.671875 -0.226562 0.519531 -0.378906 0.40625 -0.578125 C 0.300781 -0.785156 0.25 -1.019531 0.25 -1.28125 Z M 2.578125 -1.28125 C 2.578125 -1.507812 2.53125 -1.707031 2.4375 -1.875 C 2.351562 -2.050781 2.226562 -2.1875 2.0625 -2.28125 C 1.90625 -2.375 1.726562 -2.421875 1.53125 -2.421875 C 1.320312 -2.421875 1.132812 -2.375 0.96875 -2.28125 C 0.8125 -2.195312 0.6875 -2.066406 0.59375 -1.890625 C 0.507812 -1.722656 0.46875 -1.519531 0.46875 -1.28125 C 0.46875 -1.050781 0.507812 -0.847656 0.59375 -0.671875 C 0.6875 -0.503906 0.8125 -0.375 0.96875 -0.28125 C 1.132812 -0.195312 1.320312 -0.15625 1.53125 -0.15625 C 1.726562 -0.15625 1.90625 -0.203125 2.0625 -0.296875 C 2.226562 -0.390625 2.351562 -0.519531 2.4375 -0.6875 C 2.53125 -0.863281 2.578125 -1.0625 2.578125 -1.28125 Z M 2.578125 -1.28125 "/></g></g></g><g fill="#ffffff" fill-opacity="1"><g transform="translate(88.375044, 47.858293)"><g/></g></g><g fill="#ffffff" fill-opacity="1"><g transform="translate(89.529885, 47.858293)"><g><path d="M 1.25 0.03125 C 0.957031 0.03125 0.71875 -0.03125 0.53125 -0.15625 C 0.351562 -0.28125 0.253906 -0.457031 0.234375 -0.6875 L 0.453125 -0.6875 C 0.472656 -0.519531 0.550781 -0.382812 0.6875 -0.28125 C 0.820312 -0.1875 1.007812 -0.140625 1.25 -0.140625 C 1.4375 -0.140625 1.585938 -0.1875 1.703125 -0.28125 C 1.828125 -0.382812 1.890625 -0.507812 1.890625 -0.65625 C 1.890625 -0.757812 1.859375 -0.84375 1.796875 -0.90625 C 1.734375 -0.976562 1.65625 -1.03125 1.5625 -1.0625 C 1.46875 -1.09375 1.34375 -1.128906 1.1875 -1.171875 C 1 -1.222656 0.84375 -1.269531 0.71875 -1.3125 C 0.601562 -1.363281 0.503906 -1.4375 0.421875 -1.53125 C 0.347656 -1.632812 0.3125 -1.769531 0.3125 -1.9375 C 0.3125 -2.050781 0.347656 -2.160156 0.421875 -2.265625 C 0.492188 -2.367188 0.59375 -2.453125 0.71875 -2.515625 C 0.84375 -2.578125 0.988281 -2.609375 1.15625 -2.609375 C 1.425781 -2.609375 1.644531 -2.539062 1.8125 -2.40625 C 1.976562 -2.269531 2.066406 -2.082031 2.078125 -1.84375 L 1.859375 -1.84375 C 1.847656 -2.019531 1.78125 -2.160156 1.65625 -2.265625 C 1.539062 -2.367188 1.375 -2.421875 1.15625 -2.421875 C 0.96875 -2.421875 0.8125 -2.375 0.6875 -2.28125 C 0.570312 -2.1875 0.515625 -2.070312 0.515625 -1.9375 C 0.515625 -1.8125 0.546875 -1.710938 0.609375 -1.640625 C 0.679688 -1.566406 0.765625 -1.507812 0.859375 -1.46875 C 0.960938 -1.4375 1.097656 -1.394531 1.265625 -1.34375 C 1.441406 -1.300781 1.582031 -1.253906 1.6875 -1.203125 C 1.800781 -1.160156 1.894531 -1.09375 1.96875 -1 C 2.050781 -0.914062 2.09375 -0.800781 2.09375 -0.65625 C 2.09375 -0.53125 2.054688 -0.410156 1.984375 -0.296875 C 1.910156 -0.191406 1.804688 -0.109375 1.671875 -0.046875 C 1.546875 0.00390625 1.40625 0.03125 1.25 0.03125 Z M 1.25 0.03125 "/></g></g></g><g fill="#ffffff" fill-opacity="1"><g transform="translate(91.702354, 47.858293)"><g><path d="M 1.515625 0.03125 C 1.273438 0.03125 1.054688 -0.0195312 0.859375 -0.125 C 0.671875 -0.226562 0.519531 -0.378906 0.40625 -0.578125 C 0.300781 -0.785156 0.25 -1.019531 0.25 -1.28125 C 0.25 -1.550781 0.304688 -1.785156 0.421875 -1.984375 C 0.535156 -2.179688 0.6875 -2.332031 0.875 -2.4375 C 1.070312 -2.550781 1.289062 -2.609375 1.53125 -2.609375 C 1.769531 -2.609375 1.984375 -2.550781 2.171875 -2.4375 C 2.367188 -2.332031 2.519531 -2.179688 2.625 -1.984375 C 2.738281 -1.785156 2.796875 -1.550781 2.796875 -1.28125 C 2.796875 -1.019531 2.738281 -0.785156 2.625 -0.578125 C 2.519531 -0.378906 2.367188 -0.226562 2.171875 -0.125 C 1.972656 -0.0195312 1.753906 0.03125 1.515625 0.03125 Z M 1.515625 -0.15625 C 1.703125 -0.15625 1.875 -0.195312 2.03125 -0.28125 C 2.195312 -0.363281 2.328125 -0.488281 2.421875 -0.65625 C 2.523438 -0.820312 2.578125 -1.03125 2.578125 -1.28125 C 2.578125 -1.53125 2.523438 -1.738281 2.421875 -1.90625 C 2.328125 -2.082031 2.195312 -2.210938 2.03125 -2.296875 C 1.875 -2.378906 1.707031 -2.421875 1.53125 -2.421875 C 1.34375 -2.421875 1.164062 -2.378906 1 -2.296875 C 0.84375 -2.210938 0.710938 -2.082031 0.609375 -1.90625 C 0.515625 -1.738281 0.46875 -1.53125 0.46875 -1.28125 C 0.46875 -1.03125 0.515625 -0.820312 0.609375 -0.65625 C 0.710938 -0.488281 0.84375 -0.363281 1 -0.28125 C 1.15625 -0.195312 1.328125 -0.15625 1.515625 -0.15625 Z M 1.515625 -0.15625 "/></g></g></g><g fill="#ffffff" fill-opacity="1"><g transform="translate(94.575327, 47.858293)"><g><path d="M 0.59375 -3.5 L 0.59375 0 L 0.390625 0 L 0.390625 -3.5 Z M 0.59375 -3.5 "/></g></g></g><g fill="#ffffff" fill-opacity="1"><g transform="translate(95.38938, 47.858293)"><g><path d="M 2.5625 -2.578125 L 2.5625 0 L 2.34375 0 L 2.34375 -0.5625 C 2.269531 -0.363281 2.148438 -0.210938 1.984375 -0.109375 C 1.816406 -0.00390625 1.625 0.046875 1.40625 0.046875 C 1.101562 0.046875 0.851562 -0.046875 0.65625 -0.234375 C 0.457031 -0.421875 0.359375 -0.703125 0.359375 -1.078125 L 0.359375 -2.578125 L 0.578125 -2.578125 L 0.578125 -1.09375 C 0.578125 -0.78125 0.648438 -0.539062 0.796875 -0.375 C 0.953125 -0.21875 1.164062 -0.140625 1.4375 -0.140625 C 1.707031 -0.140625 1.925781 -0.226562 2.09375 -0.40625 C 2.257812 -0.582031 2.34375 -0.84375 2.34375 -1.1875 L 2.34375 -2.578125 Z M 2.5625 -2.578125 "/></g></g></g><g fill="#ffffff" fill-opacity="1"><g transform="translate(98.158227, 47.858293)"><g><path d="M 1.5 -0.140625 C 1.75 -0.140625 1.957031 -0.203125 2.125 -0.328125 C 2.300781 -0.460938 2.410156 -0.640625 2.453125 -0.859375 L 2.671875 -0.859375 C 2.628906 -0.597656 2.507812 -0.382812 2.3125 -0.21875 C 2.125 -0.0625 1.878906 0.0195312 1.578125 0.03125 L 1.578125 0.375 C 1.765625 0.363281 1.910156 0.390625 2.015625 0.453125 C 2.117188 0.523438 2.171875 0.632812 2.171875 0.78125 C 2.171875 0.90625 2.125 1.007812 2.03125 1.09375 C 1.9375 1.175781 1.804688 1.21875 1.640625 1.21875 L 1.265625 1.21875 L 1.265625 1.0625 L 1.609375 1.0625 C 1.742188 1.0625 1.835938 1.035156 1.890625 0.984375 C 1.953125 0.929688 1.984375 0.863281 1.984375 0.78125 C 1.984375 0.601562 1.859375 0.515625 1.609375 0.515625 L 1.40625 0.515625 L 1.40625 0.03125 C 1.175781 0.0195312 0.972656 -0.0351562 0.796875 -0.140625 C 0.628906 -0.253906 0.492188 -0.410156 0.390625 -0.609375 C 0.296875 -0.804688 0.25 -1.03125 0.25 -1.28125 C 0.25 -1.550781 0.300781 -1.785156 0.40625 -1.984375 C 0.519531 -2.179688 0.671875 -2.332031 0.859375 -2.4375 C 1.046875 -2.550781 1.257812 -2.609375 1.5 -2.609375 C 1.820312 -2.609375 2.085938 -2.523438 2.296875 -2.359375 C 2.503906 -2.203125 2.628906 -1.988281 2.671875 -1.71875 L 2.453125 -1.71875 C 2.410156 -1.9375 2.300781 -2.109375 2.125 -2.234375 C 1.957031 -2.359375 1.75 -2.421875 1.5 -2.421875 C 1.3125 -2.421875 1.140625 -2.378906 0.984375 -2.296875 C 0.828125 -2.210938 0.703125 -2.082031 0.609375 -1.90625 C 0.515625 -1.738281 0.46875 -1.53125 0.46875 -1.28125 C 0.46875 -1.03125 0.515625 -0.820312 0.609375 -0.65625 C 0.703125 -0.488281 0.828125 -0.359375 0.984375 -0.265625 C 1.140625 -0.179688 1.3125 -0.140625 1.5 -0.140625 Z M 1.5 -0.140625 "/></g></g></g><g fill="#ffffff" fill-opacity="1"><g transform="translate(100.917608, 47.858293)"><g><path d="M 0.25 -1.28125 C 0.25 -1.550781 0.300781 -1.785156 0.40625 -1.984375 C 0.519531 -2.179688 0.671875 -2.332031 0.859375 -2.4375 C 1.046875 -2.550781 1.257812 -2.609375 1.5 -2.609375 C 1.769531 -2.609375 2 -2.539062 2.1875 -2.40625 C 2.375 -2.269531 2.503906 -2.101562 2.578125 -1.90625 L 2.578125 -2.578125 L 2.796875 -2.578125 L 2.796875 0 L 2.578125 0 L 2.578125 -0.671875 C 2.503906 -0.460938 2.375 -0.289062 2.1875 -0.15625 C 2 -0.03125 1.769531 0.03125 1.5 0.03125 C 1.257812 0.03125 1.046875 -0.0195312 0.859375 -0.125 C 0.671875 -0.226562 0.519531 -0.378906 0.40625 -0.578125 C 0.300781 -0.785156 0.25 -1.019531 0.25 -1.28125 Z M 2.578125 -1.28125 C 2.578125 -1.507812 2.53125 -1.707031 2.4375 -1.875 C 2.351562 -2.050781 2.226562 -2.1875 2.0625 -2.28125 C 1.90625 -2.375 1.726562 -2.421875 1.53125 -2.421875 C 1.320312 -2.421875 1.132812 -2.375 0.96875 -2.28125 C 0.8125 -2.195312 0.6875 -2.066406 0.59375 -1.890625 C 0.507812 -1.722656 0.46875 -1.519531 0.46875 -1.28125 C 0.46875 -1.050781 0.507812 -0.847656 0.59375 -0.671875 C 0.6875 -0.503906 0.8125 -0.375 0.96875 -0.28125 C 1.132812 -0.195312 1.320312 -0.15625 1.53125 -0.15625 C 1.726562 -0.15625 1.90625 -0.203125 2.0625 -0.296875 C 2.226562 -0.390625 2.351562 -0.519531 2.4375 -0.6875 C 2.53125 -0.863281 2.578125 -1.0625 2.578125 -1.28125 Z M 1.0625 -2.859375 C 1.070312 -2.984375 1.109375 -3.078125 1.171875 -3.140625 C 1.234375 -3.210938 1.3125 -3.25 1.40625 -3.25 C 1.457031 -3.25 1.503906 -3.238281 1.546875 -3.21875 C 1.585938 -3.195312 1.632812 -3.164062 1.6875 -3.125 C 1.738281 -3.082031 1.78125 -3.050781 1.8125 -3.03125 C 1.84375 -3.019531 1.878906 -3.015625 1.921875 -3.015625 C 1.984375 -3.015625 2.03125 -3.03125 2.0625 -3.0625 C 2.101562 -3.101562 2.128906 -3.160156 2.140625 -3.234375 L 2.28125 -3.234375 C 2.269531 -3.117188 2.226562 -3.023438 2.15625 -2.953125 C 2.09375 -2.890625 2.015625 -2.859375 1.921875 -2.859375 C 1.859375 -2.859375 1.804688 -2.867188 1.765625 -2.890625 C 1.722656 -2.910156 1.675781 -2.941406 1.625 -2.984375 C 1.582031 -3.015625 1.546875 -3.039062 1.515625 -3.0625 C 1.484375 -3.082031 1.445312 -3.09375 1.40625 -3.09375 C 1.289062 -3.09375 1.222656 -3.015625 1.203125 -2.859375 Z M 1.0625 -2.859375 "/></g></g></g><g fill="#ffffff" fill-opacity="1"><g transform="translate(103.923112, 47.858293)"><g><path d="M 1.515625 0.03125 C 1.273438 0.03125 1.054688 -0.0195312 0.859375 -0.125 C 0.671875 -0.226562 0.519531 -0.378906 0.40625 -0.578125 C 0.300781 -0.785156 0.25 -1.019531 0.25 -1.28125 C 0.25 -1.550781 0.304688 -1.785156 0.421875 -1.984375 C 0.535156 -2.179688 0.6875 -2.332031 0.875 -2.4375 C 1.070312 -2.550781 1.289062 -2.609375 1.53125 -2.609375 C 1.769531 -2.609375 1.984375 -2.550781 2.171875 -2.4375 C 2.367188 -2.332031 2.519531 -2.179688 2.625 -1.984375 C 2.738281 -1.785156 2.796875 -1.550781 2.796875 -1.28125 C 2.796875 -1.019531 2.738281 -0.785156 2.625 -0.578125 C 2.519531 -0.378906 2.367188 -0.226562 2.171875 -0.125 C 1.972656 -0.0195312 1.753906 0.03125 1.515625 0.03125 Z M 1.515625 -0.15625 C 1.703125 -0.15625 1.875 -0.195312 2.03125 -0.28125 C 2.195312 -0.363281 2.328125 -0.488281 2.421875 -0.65625 C 2.523438 -0.820312 2.578125 -1.03125 2.578125 -1.28125 C 2.578125 -1.53125 2.523438 -1.738281 2.421875 -1.90625 C 2.328125 -2.082031 2.195312 -2.210938 2.03125 -2.296875 C 1.875 -2.378906 1.707031 -2.421875 1.53125 -2.421875 C 1.34375 -2.421875 1.164062 -2.378906 1 -2.296875 C 0.84375 -2.210938 0.710938 -2.082031 0.609375 -1.90625 C 0.515625 -1.738281 0.46875 -1.53125 0.46875 -1.28125 C 0.46875 -1.03125 0.515625 -0.820312 0.609375 -0.65625 C 0.710938 -0.488281 0.84375 -0.363281 1 -0.28125 C 1.15625 -0.195312 1.328125 -0.15625 1.515625 -0.15625 Z M 1.515625 -0.15625 "/></g></g></g></svg>