<svg xmlns="http://www.w3.org/2000/svg" xmlns:xlink="http://www.w3.org/1999/xlink" width="500" zoomAndPan="magnify" viewBox="0 0 375 374.999991" height="500" preserveAspectRatio="xMidYMid meet" version="1.0"><defs><g/><clipPath id="4cbda3eefc"><path d="M 248 167 L 269 167 L 269 189 L 248 189 Z M 248 167 " clip-rule="nonzero"/></clipPath><clipPath id="6d88cd795a"><path d="M 243.675781 170.660156 L 258.546875 156.914062 L 278.90625 178.945312 L 264.035156 192.6875 Z M 243.675781 170.660156 " clip-rule="nonzero"/></clipPath><clipPath id="1bf0fce7f3"><path d="M 243.675781 170.660156 L 258.546875 156.914062 L 278.90625 178.945312 L 264.035156 192.6875 Z M 243.675781 170.660156 " clip-rule="nonzero"/></clipPath><clipPath id="6540515eb5"><path d="M 258 157 L 280 157 L 280 179 L 258 179 Z M 258 157 " clip-rule="nonzero"/></clipPath><clipPath id="b1f1054537"><path d="M 254.34375 160.796875 L 269.214844 147.050781 L 289.578125 169.082031 L 274.707031 182.828125 Z M 254.34375 160.796875 " clip-rule="nonzero"/></clipPath><clipPath id="6c1146bac6"><path d="M 254.34375 160.796875 L 269.214844 147.050781 L 289.578125 169.082031 L 274.707031 182.828125 Z M 254.34375 160.796875 " clip-rule="nonzero"/></clipPath></defs><g clip-path="url(#4cbda3eefc)"><g clip-path="url(#6d88cd795a)"><g clip-path="url(#1bf0fce7f3)"><path fill="#18cb96" d="M 268.882812 168.199219 L 250.855469 167.398438 C 247.375 167.246094 246.789062 174.027344 250.914062 174.136719 L 262.128906 174.441406 L 261.269531 185.726562 C 261.011719 189.164062 267.710938 189.527344 267.902344 186.035156 Z M 268.882812 168.199219 " fill-opacity="1" fill-rule="nonzero"/></g></g></g><g clip-path="url(#6540515eb5)"><g clip-path="url(#b1f1054537)"><g clip-path="url(#6c1146bac6)"><path fill="#18cb96" d="M 279.550781 158.335938 L 261.527344 157.535156 C 258.046875 157.382812 257.457031 164.164062 261.582031 164.277344 L 272.796875 164.578125 L 271.941406 175.863281 C 271.679688 179.300781 278.382812 179.664062 278.574219 176.171875 Z M 279.550781 158.335938 " fill-opacity="1" fill-rule="nonzero"/></g></g></g><g fill="#373643" fill-opacity="1"><g transform="translate(114.555909, 204.845628)"><g><path d="M 9.28125 -9.5 L 9.28125 -2.734375 C 9.28125 -1.804688 8.945312 -1.117188 8.28125 -0.671875 C 7.625 -0.222656 6.921875 0 6.171875 0 C 5.378906 0 4.671875 -0.222656 4.046875 -0.671875 C 3.421875 -1.117188 3.109375 -1.789062 3.109375 -2.6875 L 3.109375 -31.390625 C 3.109375 -32.210938 3.410156 -32.878906 4.015625 -33.390625 C 4.628906 -33.910156 5.363281 -34.171875 6.21875 -34.171875 L 17.171875 -34.171875 C 20.140625 -34.171875 22.675781 -33.644531 24.78125 -32.59375 C 26.894531 -31.539062 28.503906 -30.070312 29.609375 -28.1875 C 30.722656 -26.3125 31.28125 -24.101562 31.28125 -21.5625 C 31.28125 -17.957031 30.023438 -15.046875 27.515625 -12.828125 C 25.015625 -10.609375 21.515625 -9.5 17.015625 -9.5 Z M 9.28125 -28.859375 L 9.28125 -14.8125 L 17.015625 -14.8125 C 19.660156 -14.8125 21.679688 -15.425781 23.078125 -16.65625 C 24.472656 -17.894531 25.171875 -19.53125 25.171875 -21.5625 C 25.171875 -23.78125 24.476562 -25.550781 23.09375 -26.875 C 21.71875 -28.195312 19.757812 -28.859375 17.21875 -28.859375 Z M 9.28125 -28.859375 "/></g></g></g><g fill="#373643" fill-opacity="1"><g transform="translate(146.85323, 204.845628)"><g><path d="M 14.484375 -27.3125 C 15.453125 -27.3125 16.222656 -27.101562 16.796875 -26.6875 C 17.367188 -26.28125 17.65625 -25.613281 17.65625 -24.6875 C 17.65625 -23.820312 17.367188 -23.140625 16.796875 -22.640625 C 16.222656 -22.140625 15.453125 -21.890625 14.484375 -21.890625 C 12.234375 -21.890625 10.648438 -21.082031 9.734375 -19.46875 C 8.828125 -17.863281 8.375 -15.6875 8.375 -12.9375 L 8.375 -2.734375 C 8.375 -1.953125 8.085938 -1.300781 7.515625 -0.78125 C 6.941406 -0.257812 6.242188 0 5.421875 0 C 4.492188 0 3.742188 -0.257812 3.171875 -0.78125 C 2.597656 -1.300781 2.3125 -1.953125 2.3125 -2.734375 L 2.3125 -24.578125 C 2.3125 -25.429688 2.640625 -26.097656 3.296875 -26.578125 C 3.960938 -27.066406 4.671875 -27.3125 5.421875 -27.3125 C 6.171875 -27.3125 6.847656 -27.078125 7.453125 -26.609375 C 8.066406 -26.148438 8.375 -25.472656 8.375 -24.578125 L 8.375 -24.25 C 9.15625 -25.289062 10.0625 -26.0625 11.09375 -26.5625 C 12.132812 -27.0625 13.265625 -27.3125 14.484375 -27.3125 Z M 14.484375 -27.3125 "/></g></g></g><g fill="#373643" fill-opacity="1"><g transform="translate(162.894348, 204.845628)"><g><path d="M 15.34375 -27.84375 C 18.207031 -27.84375 20.710938 -27.242188 22.859375 -26.046875 C 25.003906 -24.847656 26.664062 -23.175781 27.84375 -21.03125 C 29.03125 -18.882812 29.625 -16.378906 29.625 -13.515625 C 29.582031 -10.734375 28.960938 -8.285156 27.765625 -6.171875 C 26.566406 -4.054688 24.898438 -2.410156 22.765625 -1.234375 C 20.640625 -0.0546875 18.164062 0.53125 15.34375 0.53125 C 12.550781 0.53125 10.082031 -0.0546875 7.9375 -1.234375 C 5.789062 -2.410156 4.117188 -4.054688 2.921875 -6.171875 C 1.722656 -8.285156 1.109375 -10.734375 1.078125 -13.515625 C 1.078125 -16.378906 1.675781 -18.882812 2.875 -21.03125 C 4.070312 -23.175781 5.742188 -24.847656 7.890625 -26.046875 C 10.035156 -27.242188 12.519531 -27.84375 15.34375 -27.84375 Z M 15.34375 -4.828125 C 17.78125 -4.828125 19.722656 -5.628906 21.171875 -7.234375 C 22.617188 -8.847656 23.34375 -10.941406 23.34375 -13.515625 C 23.34375 -16.160156 22.617188 -18.316406 21.171875 -19.984375 C 19.722656 -21.648438 17.78125 -22.484375 15.34375 -22.484375 C 12.945312 -22.484375 11.015625 -21.648438 9.546875 -19.984375 C 8.078125 -18.316406 7.34375 -16.160156 7.34375 -13.515625 C 7.34375 -10.941406 8.078125 -8.847656 9.546875 -7.234375 C 11.015625 -5.628906 12.945312 -4.828125 15.34375 -4.828125 Z M 15.34375 -4.828125 "/></g></g></g><g fill="#373643" fill-opacity="1"><g transform="translate(192.670079, 204.845628)"><g><path d="M 9.28125 -28.96875 L 9.28125 -18.296875 L 26.453125 -18.296875 C 27.378906 -18.296875 28.078125 -18.019531 28.546875 -17.46875 C 29.015625 -16.914062 29.25 -16.316406 29.25 -15.671875 C 29.25 -15.023438 29.015625 -14.441406 28.546875 -13.921875 C 28.078125 -13.398438 27.378906 -13.140625 26.453125 -13.140625 L 9.28125 -13.140625 L 9.28125 -2.890625 C 9.28125 -1.960938 8.957031 -1.25 8.3125 -0.75 C 7.664062 -0.25 6.96875 0 6.21875 0 C 5.4375 0 4.722656 -0.25 4.078125 -0.75 C 3.429688 -1.25 3.109375 -1.945312 3.109375 -2.84375 L 3.109375 -31.015625 C 3.109375 -31.867188 3.457031 -32.609375 4.15625 -33.234375 C 4.851562 -33.859375 5.664062 -34.171875 6.59375 -34.171875 L 27.421875 -34.171875 C 28.378906 -34.171875 29.09375 -33.898438 29.5625 -33.359375 C 30.03125 -32.828125 30.265625 -32.222656 30.265625 -31.546875 C 30.265625 -30.898438 30.03125 -30.304688 29.5625 -29.765625 C 29.09375 -29.234375 28.378906 -28.96875 27.421875 -28.96875 Z M 9.28125 -28.96875 "/></g></g></g><g fill="#373643" fill-opacity="1"><g transform="translate(223.733426, 204.845628)"><g><path d="M 8.046875 -31.328125 C 8.046875 -30.441406 7.710938 -29.773438 7.046875 -29.328125 C 6.390625 -28.878906 5.6875 -28.65625 4.9375 -28.65625 C 4.144531 -28.65625 3.425781 -28.878906 2.78125 -29.328125 C 2.144531 -29.773438 1.828125 -30.441406 1.828125 -31.328125 L 1.828125 -32.03125 C 1.828125 -32.957031 2.144531 -33.632812 2.78125 -34.0625 C 3.425781 -34.5 4.144531 -34.71875 4.9375 -34.71875 C 5.6875 -34.71875 6.390625 -34.5 7.046875 -34.0625 C 7.710938 -33.632812 8.046875 -32.957031 8.046875 -32.03125 Z M 1.875 -24.6875 C 1.875 -25.539062 2.203125 -26.191406 2.859375 -26.640625 C 3.523438 -27.085938 4.21875 -27.3125 4.9375 -27.3125 C 5.6875 -27.3125 6.382812 -27.085938 7.03125 -26.640625 C 7.675781 -26.191406 8 -25.554688 8 -24.734375 L 8 -2.625 C 8 -1.726562 7.675781 -1.066406 7.03125 -0.640625 C 6.382812 -0.210938 5.6875 0 4.9375 0 C 4.21875 0 3.523438 -0.210938 2.859375 -0.640625 C 2.203125 -1.066406 1.875 -1.726562 1.875 -2.625 Z M 1.875 -24.6875 "/></g></g></g><g fill="#373643" fill-opacity="1"><g transform="translate(232.531683, 204.845628)"><g><path d="M 24.796875 -5.09375 C 25.503906 -4.3125 25.832031 -3.523438 25.78125 -2.734375 C 25.726562 -1.953125 25.429688 -1.300781 24.890625 -0.78125 C 24.359375 -0.257812 23.71875 0 22.96875 0 C 22.144531 0 21.335938 -0.394531 20.546875 -1.1875 L 12.875 -9.5 L 5.265625 -1.28125 C 4.441406 -0.425781 3.546875 0 2.578125 0 C 1.859375 0 1.226562 -0.238281 0.6875 -0.71875 C 0.15625 -1.207031 -0.125 -1.816406 -0.15625 -2.546875 C -0.195312 -3.285156 0.140625 -4.046875 0.859375 -4.828125 L 9.125 -13.734375 L 1.078125 -22.421875 C 0.359375 -23.210938 0.015625 -23.984375 0.046875 -24.734375 C 0.0859375 -25.484375 0.382812 -26.097656 0.9375 -26.578125 C 1.488281 -27.066406 2.140625 -27.3125 2.890625 -27.3125 C 3.359375 -27.3125 3.832031 -27.203125 4.3125 -26.984375 C 4.800781 -26.773438 5.273438 -26.421875 5.734375 -25.921875 L 12.984375 -18.140625 L 20.328125 -26.015625 C 20.765625 -26.484375 21.210938 -26.816406 21.671875 -27.015625 C 22.140625 -27.210938 22.585938 -27.3125 23.015625 -27.3125 C 23.765625 -27.3125 24.40625 -27.078125 24.9375 -26.609375 C 25.476562 -26.148438 25.765625 -25.550781 25.796875 -24.8125 C 25.835938 -24.082031 25.484375 -23.304688 24.734375 -22.484375 L 16.6875 -13.84375 Z M 24.796875 -5.09375 "/></g></g></g><g fill="#373643" fill-opacity="1"><g transform="translate(73.439189, 225.769265)"><g><path d="M 4.8125 0.125 C 4.039062 0.125 3.367188 -0.0078125 2.796875 -0.28125 C 2.222656 -0.550781 1.773438 -0.914062 1.453125 -1.375 C 1.140625 -1.84375 0.957031 -2.359375 0.90625 -2.921875 L 1.703125 -2.921875 C 1.796875 -2.296875 2.085938 -1.742188 2.578125 -1.265625 C 3.066406 -0.785156 3.8125 -0.546875 4.8125 -0.546875 C 5.394531 -0.546875 5.898438 -0.648438 6.328125 -0.859375 C 6.765625 -1.078125 7.097656 -1.367188 7.328125 -1.734375 C 7.566406 -2.109375 7.6875 -2.519531 7.6875 -2.96875 C 7.6875 -3.539062 7.550781 -3.992188 7.28125 -4.328125 C 7.007812 -4.671875 6.664062 -4.925781 6.25 -5.09375 C 5.84375 -5.257812 5.289062 -5.441406 4.59375 -5.640625 C 3.820312 -5.835938 3.203125 -6.035156 2.734375 -6.234375 C 2.273438 -6.441406 1.882812 -6.753906 1.5625 -7.171875 C 1.238281 -7.597656 1.078125 -8.175781 1.078125 -8.90625 C 1.078125 -9.46875 1.222656 -9.984375 1.515625 -10.453125 C 1.816406 -10.921875 2.242188 -11.289062 2.796875 -11.5625 C 3.347656 -11.832031 3.984375 -11.96875 4.703125 -11.96875 C 5.753906 -11.96875 6.597656 -11.707031 7.234375 -11.1875 C 7.878906 -10.664062 8.265625 -10.03125 8.390625 -9.28125 L 7.578125 -9.28125 C 7.503906 -9.582031 7.351562 -9.890625 7.125 -10.203125 C 6.894531 -10.523438 6.566406 -10.789062 6.140625 -11 C 5.722656 -11.207031 5.222656 -11.3125 4.640625 -11.3125 C 3.847656 -11.3125 3.179688 -11.09375 2.640625 -10.65625 C 2.109375 -10.21875 1.84375 -9.640625 1.84375 -8.921875 C 1.84375 -8.347656 1.984375 -7.890625 2.265625 -7.546875 C 2.546875 -7.203125 2.890625 -6.941406 3.296875 -6.765625 C 3.710938 -6.597656 4.269531 -6.425781 4.96875 -6.25 C 5.738281 -6.03125 6.351562 -5.820312 6.8125 -5.625 C 7.269531 -5.425781 7.65625 -5.113281 7.96875 -4.6875 C 8.289062 -4.269531 8.453125 -3.703125 8.453125 -2.984375 C 8.453125 -2.453125 8.3125 -1.953125 8.03125 -1.484375 C 7.75 -1.015625 7.332031 -0.628906 6.78125 -0.328125 C 6.238281 -0.0234375 5.582031 0.125 4.8125 0.125 Z M 4.8125 0.125 "/></g></g></g><g fill="#373643" fill-opacity="1"><g transform="translate(82.148026, 225.769265)"><g><path d="M 9.640625 -5.203125 C 9.640625 -4.796875 9.628906 -4.488281 9.609375 -4.28125 L 1.6875 -4.28125 C 1.707031 -3.457031 1.882812 -2.765625 2.21875 -2.203125 C 2.5625 -1.640625 3.007812 -1.21875 3.5625 -0.9375 C 4.113281 -0.65625 4.710938 -0.515625 5.359375 -0.515625 C 6.265625 -0.515625 7.019531 -0.738281 7.625 -1.1875 C 8.226562 -1.632812 8.613281 -2.238281 8.78125 -3 L 9.5625 -3 C 9.382812 -2.070312 8.925781 -1.316406 8.1875 -0.734375 C 7.445312 -0.148438 6.503906 0.140625 5.359375 0.140625 C 4.503906 0.140625 3.738281 -0.0507812 3.0625 -0.4375 C 2.394531 -0.820312 1.867188 -1.367188 1.484375 -2.078125 C 1.097656 -2.796875 0.90625 -3.632812 0.90625 -4.59375 C 0.90625 -5.550781 1.09375 -6.382812 1.46875 -7.09375 C 1.851562 -7.800781 2.378906 -8.34375 3.046875 -8.71875 C 3.722656 -9.09375 4.492188 -9.28125 5.359375 -9.28125 C 6.242188 -9.28125 7.007812 -9.09375 7.65625 -8.71875 C 8.300781 -8.34375 8.789062 -7.84375 9.125 -7.21875 C 9.46875 -6.59375 9.640625 -5.921875 9.640625 -5.203125 Z M 8.875 -4.90625 C 8.90625 -5.71875 8.757812 -6.40625 8.4375 -6.96875 C 8.125 -7.53125 7.691406 -7.945312 7.140625 -8.21875 C 6.585938 -8.5 5.988281 -8.640625 5.34375 -8.640625 C 4.707031 -8.640625 4.113281 -8.5 3.5625 -8.21875 C 3.019531 -7.945312 2.578125 -7.53125 2.234375 -6.96875 C 1.890625 -6.40625 1.707031 -5.71875 1.6875 -4.90625 Z M 8.875 -4.90625 "/></g></g></g><g fill="#373643" fill-opacity="1"><g transform="translate(92.055202, 225.769265)"><g><path d="M 9.125 -9.15625 L 9.125 0 L 8.375 0 L 8.375 -1.984375 C 8.113281 -1.285156 7.679688 -0.753906 7.078125 -0.390625 C 6.472656 -0.0234375 5.785156 0.15625 5.015625 0.15625 C 3.921875 0.15625 3.023438 -0.175781 2.328125 -0.84375 C 1.640625 -1.519531 1.296875 -2.515625 1.296875 -3.828125 L 1.296875 -9.15625 L 2.046875 -9.15625 L 2.046875 -3.875 C 2.046875 -2.789062 2.320312 -1.957031 2.875 -1.375 C 3.425781 -0.789062 4.171875 -0.5 5.109375 -0.5 C 6.097656 -0.5 6.890625 -0.8125 7.484375 -1.4375 C 8.078125 -2.070312 8.375 -3.007812 8.375 -4.25 L 8.375 -9.15625 Z M 9.125 -9.15625 "/></g></g></g><g fill="#373643" fill-opacity="1"><g transform="translate(101.928625, 225.769265)"><g/></g></g><g fill="#373643" fill-opacity="1"><g transform="translate(106.046668, 225.769265)"><g><path d="M 2.140625 -6.75 C 2.398438 -7.488281 2.867188 -8.09375 3.546875 -8.5625 C 4.234375 -9.039062 5.0625 -9.28125 6.03125 -9.28125 C 6.882812 -9.28125 7.644531 -9.085938 8.3125 -8.703125 C 8.976562 -8.328125 9.5 -7.78125 9.875 -7.0625 C 10.257812 -6.351562 10.453125 -5.53125 10.453125 -4.59375 C 10.453125 -3.644531 10.257812 -2.8125 9.875 -2.09375 C 9.5 -1.382812 8.976562 -0.832031 8.3125 -0.4375 C 7.644531 -0.0507812 6.882812 0.140625 6.03125 0.140625 C 5.070312 0.140625 4.25 -0.0976562 3.5625 -0.578125 C 2.882812 -1.054688 2.410156 -1.660156 2.140625 -2.390625 L 2.140625 4.3125 L 1.390625 4.3125 L 1.390625 -9.15625 L 2.140625 -9.15625 Z M 9.671875 -4.59375 C 9.671875 -5.425781 9.507812 -6.144531 9.1875 -6.75 C 8.875 -7.351562 8.429688 -7.816406 7.859375 -8.140625 C 7.296875 -8.460938 6.644531 -8.625 5.90625 -8.625 C 5.195312 -8.625 4.554688 -8.457031 3.984375 -8.125 C 3.410156 -7.789062 2.957031 -7.316406 2.625 -6.703125 C 2.300781 -6.085938 2.140625 -5.382812 2.140625 -4.59375 C 2.140625 -3.78125 2.300781 -3.066406 2.625 -2.453125 C 2.957031 -1.835938 3.410156 -1.363281 3.984375 -1.03125 C 4.554688 -0.707031 5.195312 -0.546875 5.90625 -0.546875 C 6.644531 -0.546875 7.296875 -0.707031 7.859375 -1.03125 C 8.429688 -1.351562 8.875 -1.816406 9.1875 -2.421875 C 9.507812 -3.035156 9.671875 -3.757812 9.671875 -4.59375 Z M 9.671875 -4.59375 "/></g></g></g><g fill="#373643" fill-opacity="1"><g transform="translate(116.763986, 225.769265)"><g><path d="M 2.140625 -7.265625 C 2.367188 -7.941406 2.769531 -8.457031 3.34375 -8.8125 C 3.914062 -9.164062 4.644531 -9.34375 5.53125 -9.34375 L 5.53125 -8.5625 L 5.28125 -8.5625 C 4.382812 -8.5625 3.632812 -8.300781 3.03125 -7.78125 C 2.4375 -7.269531 2.140625 -6.4375 2.140625 -5.28125 L 2.140625 0 L 1.390625 0 L 1.390625 -9.15625 L 2.140625 -9.15625 Z M 2.140625 -7.265625 "/></g></g></g><g fill="#373643" fill-opacity="1"><g transform="translate(122.029723, 225.769265)"><g><path d="M 5.421875 0.140625 C 4.566406 0.140625 3.796875 -0.0507812 3.109375 -0.4375 C 2.421875 -0.820312 1.878906 -1.367188 1.484375 -2.078125 C 1.097656 -2.796875 0.90625 -3.632812 0.90625 -4.59375 C 0.90625 -5.53125 1.101562 -6.359375 1.5 -7.078125 C 1.894531 -7.796875 2.4375 -8.34375 3.125 -8.71875 C 3.820312 -9.09375 4.597656 -9.28125 5.453125 -9.28125 C 6.304688 -9.28125 7.078125 -9.09375 7.765625 -8.71875 C 8.453125 -8.34375 8.988281 -7.800781 9.375 -7.09375 C 9.757812 -6.382812 9.953125 -5.550781 9.953125 -4.59375 C 9.953125 -3.632812 9.753906 -2.796875 9.359375 -2.078125 C 8.972656 -1.367188 8.429688 -0.820312 7.734375 -0.4375 C 7.046875 -0.0507812 6.273438 0.140625 5.421875 0.140625 Z M 5.421875 -0.546875 C 6.078125 -0.546875 6.695312 -0.691406 7.28125 -0.984375 C 7.863281 -1.285156 8.328125 -1.738281 8.671875 -2.34375 C 9.023438 -2.945312 9.203125 -3.695312 9.203125 -4.59375 C 9.203125 -5.46875 9.023438 -6.207031 8.671875 -6.8125 C 8.328125 -7.425781 7.863281 -7.878906 7.28125 -8.171875 C 6.707031 -8.472656 6.09375 -8.625 5.4375 -8.625 C 4.769531 -8.625 4.148438 -8.472656 3.578125 -8.171875 C 3.015625 -7.878906 2.554688 -7.425781 2.203125 -6.8125 C 1.859375 -6.207031 1.6875 -5.46875 1.6875 -4.59375 C 1.6875 -3.695312 1.859375 -2.945312 2.203125 -2.34375 C 2.546875 -1.738281 3 -1.285156 3.5625 -0.984375 C 4.132812 -0.691406 4.753906 -0.546875 5.421875 -0.546875 Z M 5.421875 -0.546875 "/></g></g></g><g fill="#373643" fill-opacity="1"><g transform="translate(132.274448, 225.769265)"><g><path d="M 2.140625 -6.75 C 2.421875 -7.488281 2.898438 -8.09375 3.578125 -8.5625 C 4.253906 -9.039062 5.070312 -9.28125 6.03125 -9.28125 C 6.882812 -9.28125 7.644531 -9.085938 8.3125 -8.703125 C 8.976562 -8.328125 9.5 -7.78125 9.875 -7.0625 C 10.257812 -6.351562 10.453125 -5.53125 10.453125 -4.59375 C 10.453125 -3.644531 10.257812 -2.8125 9.875 -2.09375 C 9.5 -1.382812 8.976562 -0.832031 8.3125 -0.4375 C 7.644531 -0.0507812 6.882812 0.140625 6.03125 0.140625 C 5.070312 0.140625 4.25 -0.09375 3.5625 -0.5625 C 2.882812 -1.039062 2.410156 -1.648438 2.140625 -2.390625 L 2.140625 0 L 1.390625 0 L 1.390625 -12.484375 L 2.140625 -12.484375 Z M 9.671875 -4.59375 C 9.671875 -5.425781 9.507812 -6.144531 9.1875 -6.75 C 8.875 -7.351562 8.429688 -7.816406 7.859375 -8.140625 C 7.296875 -8.460938 6.644531 -8.625 5.90625 -8.625 C 5.195312 -8.625 4.554688 -8.457031 3.984375 -8.125 C 3.410156 -7.789062 2.957031 -7.316406 2.625 -6.703125 C 2.300781 -6.085938 2.140625 -5.382812 2.140625 -4.59375 C 2.140625 -3.78125 2.300781 -3.066406 2.625 -2.453125 C 2.957031 -1.835938 3.410156 -1.363281 3.984375 -1.03125 C 4.554688 -0.707031 5.195312 -0.546875 5.90625 -0.546875 C 6.644531 -0.546875 7.296875 -0.707031 7.859375 -1.03125 C 8.429688 -1.351562 8.875 -1.816406 9.1875 -2.421875 C 9.507812 -3.035156 9.671875 -3.757812 9.671875 -4.59375 Z M 9.671875 -4.59375 "/></g></g></g><g fill="#373643" fill-opacity="1"><g transform="translate(142.991766, 225.769265)"><g><path d="M 2.140625 -12.484375 L 2.140625 0 L 1.390625 0 L 1.390625 -12.484375 Z M 2.140625 -12.484375 "/></g></g></g><g fill="#373643" fill-opacity="1"><g transform="translate(145.894592, 225.769265)"><g><path d="M 9.640625 -5.203125 C 9.640625 -4.796875 9.628906 -4.488281 9.609375 -4.28125 L 1.6875 -4.28125 C 1.707031 -3.457031 1.882812 -2.765625 2.21875 -2.203125 C 2.5625 -1.640625 3.007812 -1.21875 3.5625 -0.9375 C 4.113281 -0.65625 4.710938 -0.515625 5.359375 -0.515625 C 6.265625 -0.515625 7.019531 -0.738281 7.625 -1.1875 C 8.226562 -1.632812 8.613281 -2.238281 8.78125 -3 L 9.5625 -3 C 9.382812 -2.070312 8.925781 -1.316406 8.1875 -0.734375 C 7.445312 -0.148438 6.503906 0.140625 5.359375 0.140625 C 4.503906 0.140625 3.738281 -0.0507812 3.0625 -0.4375 C 2.394531 -0.820312 1.867188 -1.367188 1.484375 -2.078125 C 1.097656 -2.796875 0.90625 -3.632812 0.90625 -4.59375 C 0.90625 -5.550781 1.09375 -6.382812 1.46875 -7.09375 C 1.851562 -7.800781 2.378906 -8.34375 3.046875 -8.71875 C 3.722656 -9.09375 4.492188 -9.28125 5.359375 -9.28125 C 6.242188 -9.28125 7.007812 -9.09375 7.65625 -8.71875 C 8.300781 -8.34375 8.789062 -7.84375 9.125 -7.21875 C 9.46875 -6.59375 9.640625 -5.921875 9.640625 -5.203125 Z M 8.875 -4.90625 C 8.90625 -5.71875 8.757812 -6.40625 8.4375 -6.96875 C 8.125 -7.53125 7.691406 -7.945312 7.140625 -8.21875 C 6.585938 -8.5 5.988281 -8.640625 5.34375 -8.640625 C 4.707031 -8.640625 4.113281 -8.5 3.5625 -8.21875 C 3.019531 -7.945312 2.578125 -7.53125 2.234375 -6.96875 C 1.890625 -6.40625 1.707031 -5.71875 1.6875 -4.90625 Z M 8.875 -4.90625 "/></g></g></g><g fill="#373643" fill-opacity="1"><g transform="translate(155.801766, 225.769265)"><g><path d="M 12.21875 -9.34375 C 13.257812 -9.34375 14.113281 -9.007812 14.78125 -8.34375 C 15.445312 -7.675781 15.78125 -6.679688 15.78125 -5.359375 L 15.78125 0 L 15.03125 0 L 15.03125 -5.3125 C 15.03125 -6.40625 14.769531 -7.238281 14.25 -7.8125 C 13.726562 -8.394531 13.007812 -8.6875 12.09375 -8.6875 C 11.15625 -8.6875 10.394531 -8.359375 9.8125 -7.703125 C 9.238281 -7.054688 8.953125 -6.113281 8.953125 -4.875 L 8.953125 0 L 8.21875 0 L 8.21875 -5.3125 C 8.21875 -6.40625 7.957031 -7.238281 7.4375 -7.8125 C 6.914062 -8.394531 6.195312 -8.6875 5.28125 -8.6875 C 4.332031 -8.6875 3.570312 -8.359375 3 -7.703125 C 2.425781 -7.054688 2.140625 -6.113281 2.140625 -4.875 L 2.140625 0 L 1.390625 0 L 1.390625 -9.15625 L 2.140625 -9.15625 L 2.140625 -7.171875 C 2.398438 -7.890625 2.816406 -8.429688 3.390625 -8.796875 C 3.972656 -9.160156 4.644531 -9.34375 5.40625 -9.34375 C 6.238281 -9.34375 6.953125 -9.125 7.546875 -8.6875 C 8.148438 -8.257812 8.566406 -7.625 8.796875 -6.78125 C 9.003906 -7.625 9.414062 -8.257812 10.03125 -8.6875 C 10.65625 -9.125 11.382812 -9.34375 12.21875 -9.34375 Z M 12.21875 -9.34375 "/></g></g></g><g fill="#373643" fill-opacity="1"><g transform="translate(172.257572, 225.769265)"><g><path d="M 0.90625 -4.59375 C 0.90625 -5.53125 1.09375 -6.351562 1.46875 -7.0625 C 1.851562 -7.78125 2.378906 -8.328125 3.046875 -8.703125 C 3.710938 -9.085938 4.472656 -9.28125 5.328125 -9.28125 C 6.296875 -9.28125 7.117188 -9.039062 7.796875 -8.5625 C 8.472656 -8.09375 8.945312 -7.492188 9.21875 -6.765625 L 9.21875 -9.15625 L 9.96875 -9.15625 L 9.96875 0 L 9.21875 0 L 9.21875 -2.40625 C 8.945312 -1.664062 8.46875 -1.054688 7.78125 -0.578125 C 7.101562 -0.0976562 6.285156 0.140625 5.328125 0.140625 C 4.472656 0.140625 3.710938 -0.0507812 3.046875 -0.4375 C 2.378906 -0.832031 1.851562 -1.382812 1.46875 -2.09375 C 1.09375 -2.8125 0.90625 -3.644531 0.90625 -4.59375 Z M 9.21875 -4.59375 C 9.21875 -5.382812 9.050781 -6.085938 8.71875 -6.703125 C 8.382812 -7.316406 7.929688 -7.789062 7.359375 -8.125 C 6.785156 -8.457031 6.144531 -8.625 5.4375 -8.625 C 4.6875 -8.625 4.03125 -8.460938 3.46875 -8.140625 C 2.90625 -7.816406 2.46875 -7.351562 2.15625 -6.75 C 1.84375 -6.144531 1.6875 -5.425781 1.6875 -4.59375 C 1.6875 -3.757812 1.84375 -3.035156 2.15625 -2.421875 C 2.46875 -1.816406 2.910156 -1.351562 3.484375 -1.03125 C 4.054688 -0.707031 4.707031 -0.546875 5.4375 -0.546875 C 6.144531 -0.546875 6.785156 -0.707031 7.359375 -1.03125 C 7.941406 -1.363281 8.394531 -1.835938 8.71875 -2.453125 C 9.050781 -3.066406 9.21875 -3.78125 9.21875 -4.59375 Z M 9.21875 -4.59375 "/></g></g></g><g fill="#373643" fill-opacity="1"><g transform="translate(182.97489, 225.769265)"><g><path d="M 1.890625 -1.765625 L 0.296875 2.546875 L -0.265625 2.546875 L 1.015625 -1.765625 Z M 1.890625 -1.765625 "/></g></g></g><g fill="#373643" fill-opacity="1"><g transform="translate(184.746905, 225.769265)"><g/></g></g><g fill="#373643" fill-opacity="1"><g transform="translate(188.864947, 225.769265)"><g><path d="M 5.515625 -9.34375 C 6.609375 -9.34375 7.5 -9.007812 8.1875 -8.34375 C 8.875 -7.675781 9.21875 -6.679688 9.21875 -5.359375 L 9.21875 0 L 8.46875 0 L 8.46875 -5.3125 C 8.46875 -6.40625 8.191406 -7.238281 7.640625 -7.8125 C 7.085938 -8.394531 6.34375 -8.6875 5.40625 -8.6875 C 4.414062 -8.6875 3.625 -8.367188 3.03125 -7.734375 C 2.4375 -7.109375 2.140625 -6.175781 2.140625 -4.9375 L 2.140625 0 L 1.390625 0 L 1.390625 -9.15625 L 2.140625 -9.15625 L 2.140625 -7.21875 C 2.398438 -7.90625 2.832031 -8.429688 3.4375 -8.796875 C 4.039062 -9.160156 4.734375 -9.34375 5.515625 -9.34375 Z M 5.515625 -9.34375 "/></g></g></g><g fill="#373643" fill-opacity="1"><g transform="translate(198.738367, 225.769265)"><g><path d="M 5.421875 0.140625 C 4.566406 0.140625 3.796875 -0.0507812 3.109375 -0.4375 C 2.421875 -0.820312 1.878906 -1.367188 1.484375 -2.078125 C 1.097656 -2.796875 0.90625 -3.632812 0.90625 -4.59375 C 0.90625 -5.53125 1.101562 -6.359375 1.5 -7.078125 C 1.894531 -7.796875 2.4375 -8.34375 3.125 -8.71875 C 3.820312 -9.09375 4.597656 -9.28125 5.453125 -9.28125 C 6.304688 -9.28125 7.078125 -9.09375 7.765625 -8.71875 C 8.453125 -8.34375 8.988281 -7.800781 9.375 -7.09375 C 9.757812 -6.382812 9.953125 -5.550781 9.953125 -4.59375 C 9.953125 -3.632812 9.753906 -2.796875 9.359375 -2.078125 C 8.972656 -1.367188 8.429688 -0.820312 7.734375 -0.4375 C 7.046875 -0.0507812 6.273438 0.140625 5.421875 0.140625 Z M 5.421875 -0.546875 C 6.078125 -0.546875 6.695312 -0.691406 7.28125 -0.984375 C 7.863281 -1.285156 8.328125 -1.738281 8.671875 -2.34375 C 9.023438 -2.945312 9.203125 -3.695312 9.203125 -4.59375 C 9.203125 -5.46875 9.023438 -6.207031 8.671875 -6.8125 C 8.328125 -7.425781 7.863281 -7.878906 7.28125 -8.171875 C 6.707031 -8.472656 6.09375 -8.625 5.4375 -8.625 C 4.769531 -8.625 4.148438 -8.472656 3.578125 -8.171875 C 3.015625 -7.878906 2.554688 -7.425781 2.203125 -6.8125 C 1.859375 -6.207031 1.6875 -5.46875 1.6875 -4.59375 C 1.6875 -3.695312 1.859375 -2.945312 2.203125 -2.34375 C 2.546875 -1.738281 3 -1.285156 3.5625 -0.984375 C 4.132812 -0.691406 4.753906 -0.546875 5.421875 -0.546875 Z M 5.421875 -0.546875 "/></g></g></g><g fill="#373643" fill-opacity="1"><g transform="translate(208.983092, 225.769265)"><g><path d="M 4.4375 0.140625 C 3.414062 0.140625 2.582031 -0.0820312 1.9375 -0.53125 C 1.289062 -0.988281 0.925781 -1.632812 0.84375 -2.46875 L 1.625 -2.46875 C 1.675781 -1.863281 1.945312 -1.382812 2.4375 -1.03125 C 2.925781 -0.6875 3.59375 -0.515625 4.4375 -0.515625 C 5.132812 -0.515625 5.6875 -0.691406 6.09375 -1.046875 C 6.507812 -1.410156 6.71875 -1.847656 6.71875 -2.359375 C 6.71875 -2.722656 6.609375 -3.019531 6.390625 -3.25 C 6.171875 -3.476562 5.894531 -3.65625 5.5625 -3.78125 C 5.238281 -3.90625 4.796875 -4.039062 4.234375 -4.1875 C 3.554688 -4.363281 3.007812 -4.539062 2.59375 -4.71875 C 2.175781 -4.894531 1.820312 -5.15625 1.53125 -5.5 C 1.238281 -5.851562 1.09375 -6.320312 1.09375 -6.90625 C 1.09375 -7.332031 1.222656 -7.726562 1.484375 -8.09375 C 1.742188 -8.457031 2.101562 -8.742188 2.5625 -8.953125 C 3.019531 -9.171875 3.546875 -9.28125 4.140625 -9.28125 C 5.085938 -9.28125 5.859375 -9.039062 6.453125 -8.5625 C 7.046875 -8.082031 7.363281 -7.421875 7.40625 -6.578125 L 6.65625 -6.578125 C 6.613281 -7.191406 6.375 -7.6875 5.9375 -8.0625 C 5.5 -8.445312 4.894531 -8.640625 4.125 -8.640625 C 3.46875 -8.640625 2.925781 -8.46875 2.5 -8.125 C 2.070312 -7.789062 1.859375 -7.382812 1.859375 -6.90625 C 1.859375 -6.476562 1.976562 -6.128906 2.21875 -5.859375 C 2.457031 -5.597656 2.753906 -5.394531 3.109375 -5.25 C 3.460938 -5.113281 3.929688 -4.96875 4.515625 -4.8125 C 5.160156 -4.644531 5.675781 -4.476562 6.0625 -4.3125 C 6.457031 -4.144531 6.785156 -3.90625 7.046875 -3.59375 C 7.316406 -3.289062 7.453125 -2.878906 7.453125 -2.359375 C 7.453125 -1.890625 7.320312 -1.460938 7.0625 -1.078125 C 6.8125 -0.691406 6.453125 -0.390625 5.984375 -0.171875 C 5.523438 0.0351562 5.007812 0.140625 4.4375 0.140625 Z M 4.4375 0.140625 "/></g></g></g><g fill="#373643" fill-opacity="1"><g transform="translate(216.729892, 225.769265)"><g><path d="M 4.4375 0.140625 C 3.414062 0.140625 2.582031 -0.0820312 1.9375 -0.53125 C 1.289062 -0.988281 0.925781 -1.632812 0.84375 -2.46875 L 1.625 -2.46875 C 1.675781 -1.863281 1.945312 -1.382812 2.4375 -1.03125 C 2.925781 -0.6875 3.59375 -0.515625 4.4375 -0.515625 C 5.132812 -0.515625 5.6875 -0.691406 6.09375 -1.046875 C 6.507812 -1.410156 6.71875 -1.847656 6.71875 -2.359375 C 6.71875 -2.722656 6.609375 -3.019531 6.390625 -3.25 C 6.171875 -3.476562 5.894531 -3.65625 5.5625 -3.78125 C 5.238281 -3.90625 4.796875 -4.039062 4.234375 -4.1875 C 3.554688 -4.363281 3.007812 -4.539062 2.59375 -4.71875 C 2.175781 -4.894531 1.820312 -5.15625 1.53125 -5.5 C 1.238281 -5.851562 1.09375 -6.320312 1.09375 -6.90625 C 1.09375 -7.332031 1.222656 -7.726562 1.484375 -8.09375 C 1.742188 -8.457031 2.101562 -8.742188 2.5625 -8.953125 C 3.019531 -9.171875 3.546875 -9.28125 4.140625 -9.28125 C 5.085938 -9.28125 5.859375 -9.039062 6.453125 -8.5625 C 7.046875 -8.082031 7.363281 -7.421875 7.40625 -6.578125 L 6.65625 -6.578125 C 6.613281 -7.191406 6.375 -7.6875 5.9375 -8.0625 C 5.5 -8.445312 4.894531 -8.640625 4.125 -8.640625 C 3.46875 -8.640625 2.925781 -8.46875 2.5 -8.125 C 2.070312 -7.789062 1.859375 -7.382812 1.859375 -6.90625 C 1.859375 -6.476562 1.976562 -6.128906 2.21875 -5.859375 C 2.457031 -5.597656 2.753906 -5.394531 3.109375 -5.25 C 3.460938 -5.113281 3.929688 -4.96875 4.515625 -4.8125 C 5.160156 -4.644531 5.675781 -4.476562 6.0625 -4.3125 C 6.457031 -4.144531 6.785156 -3.90625 7.046875 -3.59375 C 7.316406 -3.289062 7.453125 -2.878906 7.453125 -2.359375 C 7.453125 -1.890625 7.320312 -1.460938 7.0625 -1.078125 C 6.8125 -0.691406 6.453125 -0.390625 5.984375 -0.171875 C 5.523438 0.0351562 5.007812 0.140625 4.4375 0.140625 Z M 4.4375 0.140625 "/></g></g></g><g fill="#373643" fill-opacity="1"><g transform="translate(224.476691, 225.769265)"><g><path d="M 0.90625 -4.59375 C 0.90625 -5.53125 1.09375 -6.351562 1.46875 -7.0625 C 1.851562 -7.78125 2.378906 -8.328125 3.046875 -8.703125 C 3.710938 -9.085938 4.472656 -9.28125 5.328125 -9.28125 C 6.296875 -9.28125 7.117188 -9.039062 7.796875 -8.5625 C 8.472656 -8.09375 8.945312 -7.492188 9.21875 -6.765625 L 9.21875 -9.15625 L 9.96875 -9.15625 L 9.96875 0 L 9.21875 0 L 9.21875 -2.40625 C 8.945312 -1.664062 8.46875 -1.054688 7.78125 -0.578125 C 7.101562 -0.0976562 6.285156 0.140625 5.328125 0.140625 C 4.472656 0.140625 3.710938 -0.0507812 3.046875 -0.4375 C 2.378906 -0.832031 1.851562 -1.382812 1.46875 -2.09375 C 1.09375 -2.8125 0.90625 -3.644531 0.90625 -4.59375 Z M 9.21875 -4.59375 C 9.21875 -5.382812 9.050781 -6.085938 8.71875 -6.703125 C 8.382812 -7.316406 7.929688 -7.789062 7.359375 -8.125 C 6.785156 -8.457031 6.144531 -8.625 5.4375 -8.625 C 4.6875 -8.625 4.03125 -8.460938 3.46875 -8.140625 C 2.90625 -7.816406 2.46875 -7.351562 2.15625 -6.75 C 1.84375 -6.144531 1.6875 -5.425781 1.6875 -4.59375 C 1.6875 -3.757812 1.84375 -3.035156 2.15625 -2.421875 C 2.46875 -1.816406 2.910156 -1.351562 3.484375 -1.03125 C 4.054688 -0.707031 4.707031 -0.546875 5.4375 -0.546875 C 6.144531 -0.546875 6.785156 -0.707031 7.359375 -1.03125 C 7.941406 -1.363281 8.394531 -1.835938 8.71875 -2.453125 C 9.050781 -3.066406 9.21875 -3.78125 9.21875 -4.59375 Z M 9.21875 -4.59375 "/></g></g></g><g fill="#373643" fill-opacity="1"><g transform="translate(235.194009, 225.769265)"><g/></g></g><g fill="#373643" fill-opacity="1"><g transform="translate(239.312051, 225.769265)"><g><path d="M 4.4375 0.140625 C 3.414062 0.140625 2.582031 -0.0820312 1.9375 -0.53125 C 1.289062 -0.988281 0.925781 -1.632812 0.84375 -2.46875 L 1.625 -2.46875 C 1.675781 -1.863281 1.945312 -1.382812 2.4375 -1.03125 C 2.925781 -0.6875 3.59375 -0.515625 4.4375 -0.515625 C 5.132812 -0.515625 5.6875 -0.691406 6.09375 -1.046875 C 6.507812 -1.410156 6.71875 -1.847656 6.71875 -2.359375 C 6.71875 -2.722656 6.609375 -3.019531 6.390625 -3.25 C 6.171875 -3.476562 5.894531 -3.65625 5.5625 -3.78125 C 5.238281 -3.90625 4.796875 -4.039062 4.234375 -4.1875 C 3.554688 -4.363281 3.007812 -4.539062 2.59375 -4.71875 C 2.175781 -4.894531 1.820312 -5.15625 1.53125 -5.5 C 1.238281 -5.851562 1.09375 -6.320312 1.09375 -6.90625 C 1.09375 -7.332031 1.222656 -7.726562 1.484375 -8.09375 C 1.742188 -8.457031 2.101562 -8.742188 2.5625 -8.953125 C 3.019531 -9.171875 3.546875 -9.28125 4.140625 -9.28125 C 5.085938 -9.28125 5.859375 -9.039062 6.453125 -8.5625 C 7.046875 -8.082031 7.363281 -7.421875 7.40625 -6.578125 L 6.65625 -6.578125 C 6.613281 -7.191406 6.375 -7.6875 5.9375 -8.0625 C 5.5 -8.445312 4.894531 -8.640625 4.125 -8.640625 C 3.46875 -8.640625 2.925781 -8.46875 2.5 -8.125 C 2.070312 -7.789062 1.859375 -7.382812 1.859375 -6.90625 C 1.859375 -6.476562 1.976562 -6.128906 2.21875 -5.859375 C 2.457031 -5.597656 2.753906 -5.394531 3.109375 -5.25 C 3.460938 -5.113281 3.929688 -4.96875 4.515625 -4.8125 C 5.160156 -4.644531 5.675781 -4.476562 6.0625 -4.3125 C 6.457031 -4.144531 6.785156 -3.90625 7.046875 -3.59375 C 7.316406 -3.289062 7.453125 -2.878906 7.453125 -2.359375 C 7.453125 -1.890625 7.320312 -1.460938 7.0625 -1.078125 C 6.8125 -0.691406 6.453125 -0.390625 5.984375 -0.171875 C 5.523438 0.0351562 5.007812 0.140625 4.4375 0.140625 Z M 4.4375 0.140625 "/></g></g></g><g fill="#373643" fill-opacity="1"><g transform="translate(247.058851, 225.769265)"><g><path d="M 5.421875 0.140625 C 4.566406 0.140625 3.796875 -0.0507812 3.109375 -0.4375 C 2.421875 -0.820312 1.878906 -1.367188 1.484375 -2.078125 C 1.097656 -2.796875 0.90625 -3.632812 0.90625 -4.59375 C 0.90625 -5.53125 1.101562 -6.359375 1.5 -7.078125 C 1.894531 -7.796875 2.4375 -8.34375 3.125 -8.71875 C 3.820312 -9.09375 4.597656 -9.28125 5.453125 -9.28125 C 6.304688 -9.28125 7.078125 -9.09375 7.765625 -8.71875 C 8.453125 -8.34375 8.988281 -7.800781 9.375 -7.09375 C 9.757812 -6.382812 9.953125 -5.550781 9.953125 -4.59375 C 9.953125 -3.632812 9.753906 -2.796875 9.359375 -2.078125 C 8.972656 -1.367188 8.429688 -0.820312 7.734375 -0.4375 C 7.046875 -0.0507812 6.273438 0.140625 5.421875 0.140625 Z M 5.421875 -0.546875 C 6.078125 -0.546875 6.695312 -0.691406 7.28125 -0.984375 C 7.863281 -1.285156 8.328125 -1.738281 8.671875 -2.34375 C 9.023438 -2.945312 9.203125 -3.695312 9.203125 -4.59375 C 9.203125 -5.46875 9.023438 -6.207031 8.671875 -6.8125 C 8.328125 -7.425781 7.863281 -7.878906 7.28125 -8.171875 C 6.707031 -8.472656 6.09375 -8.625 5.4375 -8.625 C 4.769531 -8.625 4.148438 -8.472656 3.578125 -8.171875 C 3.015625 -7.878906 2.554688 -7.425781 2.203125 -6.8125 C 1.859375 -6.207031 1.6875 -5.46875 1.6875 -4.59375 C 1.6875 -3.695312 1.859375 -2.945312 2.203125 -2.34375 C 2.546875 -1.738281 3 -1.285156 3.5625 -0.984375 C 4.132812 -0.691406 4.753906 -0.546875 5.421875 -0.546875 Z M 5.421875 -0.546875 "/></g></g></g><g fill="#373643" fill-opacity="1"><g transform="translate(257.303576, 225.769265)"><g><path d="M 2.140625 -12.484375 L 2.140625 0 L 1.390625 0 L 1.390625 -12.484375 Z M 2.140625 -12.484375 "/></g></g></g><g fill="#373643" fill-opacity="1"><g transform="translate(260.206402, 225.769265)"><g><path d="M 9.125 -9.15625 L 9.125 0 L 8.375 0 L 8.375 -1.984375 C 8.113281 -1.285156 7.679688 -0.753906 7.078125 -0.390625 C 6.472656 -0.0234375 5.785156 0.15625 5.015625 0.15625 C 3.921875 0.15625 3.023438 -0.175781 2.328125 -0.84375 C 1.640625 -1.519531 1.296875 -2.515625 1.296875 -3.828125 L 1.296875 -9.15625 L 2.046875 -9.15625 L 2.046875 -3.875 C 2.046875 -2.789062 2.320312 -1.957031 2.875 -1.375 C 3.425781 -0.789062 4.171875 -0.5 5.109375 -0.5 C 6.097656 -0.5 6.890625 -0.8125 7.484375 -1.4375 C 8.078125 -2.070312 8.375 -3.007812 8.375 -4.25 L 8.375 -9.15625 Z M 9.125 -9.15625 "/></g></g></g><g fill="#373643" fill-opacity="1"><g transform="translate(270.079823, 225.769265)"><g><path d="M 5.34375 -0.515625 C 6.25 -0.515625 7.003906 -0.738281 7.609375 -1.1875 C 8.222656 -1.644531 8.609375 -2.265625 8.765625 -3.046875 L 9.546875 -3.046875 C 9.378906 -2.128906 8.945312 -1.378906 8.25 -0.796875 C 7.5625 -0.222656 6.679688 0.0859375 5.609375 0.140625 L 5.609375 1.3125 C 6.285156 1.28125 6.8125 1.390625 7.1875 1.640625 C 7.5625 1.898438 7.75 2.273438 7.75 2.765625 C 7.75 3.234375 7.582031 3.609375 7.25 3.890625 C 6.914062 4.171875 6.453125 4.3125 5.859375 4.3125 L 4.484375 4.3125 L 4.484375 3.765625 L 5.71875 3.765625 C 6.207031 3.765625 6.554688 3.675781 6.765625 3.5 C 6.972656 3.332031 7.078125 3.085938 7.078125 2.765625 C 7.078125 2.148438 6.625 1.84375 5.71875 1.84375 L 5.015625 1.84375 L 5.015625 0.125 C 4.210938 0.0703125 3.5 -0.144531 2.875 -0.53125 C 2.257812 -0.925781 1.773438 -1.472656 1.421875 -2.171875 C 1.078125 -2.867188 0.90625 -3.675781 0.90625 -4.59375 C 0.90625 -5.550781 1.09375 -6.382812 1.46875 -7.09375 C 1.851562 -7.800781 2.378906 -8.34375 3.046875 -8.71875 C 3.710938 -9.09375 4.476562 -9.28125 5.34375 -9.28125 C 6.5 -9.28125 7.441406 -8.992188 8.171875 -8.421875 C 8.910156 -7.847656 9.367188 -7.078125 9.546875 -6.109375 L 8.765625 -6.109375 C 8.609375 -6.898438 8.222656 -7.519531 7.609375 -7.96875 C 7.003906 -8.414062 6.25 -8.640625 5.34375 -8.640625 C 4.675781 -8.640625 4.066406 -8.488281 3.515625 -8.1875 C 2.960938 -7.894531 2.519531 -7.441406 2.1875 -6.828125 C 1.851562 -6.210938 1.6875 -5.46875 1.6875 -4.59375 C 1.6875 -3.695312 1.851562 -2.945312 2.1875 -2.34375 C 2.519531 -1.738281 2.960938 -1.28125 3.515625 -0.96875 C 4.066406 -0.664062 4.675781 -0.515625 5.34375 -0.515625 Z M 5.34375 -0.515625 "/></g></g></g><g fill="#373643" fill-opacity="1"><g transform="translate(279.919489, 225.769265)"><g><path d="M 0.90625 -4.59375 C 0.90625 -5.53125 1.09375 -6.351562 1.46875 -7.0625 C 1.851562 -7.78125 2.378906 -8.328125 3.046875 -8.703125 C 3.710938 -9.085938 4.472656 -9.28125 5.328125 -9.28125 C 6.296875 -9.28125 7.117188 -9.039062 7.796875 -8.5625 C 8.472656 -8.09375 8.945312 -7.492188 9.21875 -6.765625 L 9.21875 -9.15625 L 9.96875 -9.15625 L 9.96875 0 L 9.21875 0 L 9.21875 -2.40625 C 8.945312 -1.664062 8.46875 -1.054688 7.78125 -0.578125 C 7.101562 -0.0976562 6.285156 0.140625 5.328125 0.140625 C 4.472656 0.140625 3.710938 -0.0507812 3.046875 -0.4375 C 2.378906 -0.832031 1.851562 -1.382812 1.46875 -2.09375 C 1.09375 -2.8125 0.90625 -3.644531 0.90625 -4.59375 Z M 9.21875 -4.59375 C 9.21875 -5.382812 9.050781 -6.085938 8.71875 -6.703125 C 8.382812 -7.316406 7.929688 -7.789062 7.359375 -8.125 C 6.785156 -8.457031 6.144531 -8.625 5.4375 -8.625 C 4.6875 -8.625 4.03125 -8.460938 3.46875 -8.140625 C 2.90625 -7.816406 2.46875 -7.351562 2.15625 -6.75 C 1.84375 -6.144531 1.6875 -5.425781 1.6875 -4.59375 C 1.6875 -3.757812 1.84375 -3.035156 2.15625 -2.421875 C 2.46875 -1.816406 2.910156 -1.351562 3.484375 -1.03125 C 4.054688 -0.707031 4.707031 -0.546875 5.4375 -0.546875 C 6.144531 -0.546875 6.785156 -0.707031 7.359375 -1.03125 C 7.941406 -1.363281 8.394531 -1.835938 8.71875 -2.453125 C 9.050781 -3.066406 9.21875 -3.78125 9.21875 -4.59375 Z M 3.796875 -10.203125 C 3.847656 -10.628906 3.984375 -10.960938 4.203125 -11.203125 C 4.421875 -11.441406 4.695312 -11.5625 5.03125 -11.5625 C 5.226562 -11.5625 5.398438 -11.523438 5.546875 -11.453125 C 5.691406 -11.378906 5.851562 -11.269531 6.03125 -11.125 C 6.195312 -10.988281 6.335938 -10.890625 6.453125 -10.828125 C 6.578125 -10.765625 6.722656 -10.734375 6.890625 -10.734375 C 7.085938 -10.734375 7.253906 -10.800781 7.390625 -10.9375 C 7.523438 -11.070312 7.609375 -11.265625 7.640625 -11.515625 L 8.140625 -11.515625 C 8.109375 -11.109375 7.972656 -10.78125 7.734375 -10.53125 C 7.503906 -10.289062 7.21875 -10.171875 6.875 -10.171875 C 6.664062 -10.171875 6.484375 -10.207031 6.328125 -10.28125 C 6.179688 -10.363281 6.007812 -10.476562 5.8125 -10.625 C 5.65625 -10.75 5.519531 -10.84375 5.40625 -10.90625 C 5.289062 -10.96875 5.160156 -11 5.015625 -11 C 4.597656 -11 4.359375 -10.734375 4.296875 -10.203125 Z M 3.796875 -10.203125 "/></g></g></g><g fill="#373643" fill-opacity="1"><g transform="translate(290.636807, 225.769265)"><g><path d="M 5.421875 0.140625 C 4.566406 0.140625 3.796875 -0.0507812 3.109375 -0.4375 C 2.421875 -0.820312 1.878906 -1.367188 1.484375 -2.078125 C 1.097656 -2.796875 0.90625 -3.632812 0.90625 -4.59375 C 0.90625 -5.53125 1.101562 -6.359375 1.5 -7.078125 C 1.894531 -7.796875 2.4375 -8.34375 3.125 -8.71875 C 3.820312 -9.09375 4.597656 -9.28125 5.453125 -9.28125 C 6.304688 -9.28125 7.078125 -9.09375 7.765625 -8.71875 C 8.453125 -8.34375 8.988281 -7.800781 9.375 -7.09375 C 9.757812 -6.382812 9.953125 -5.550781 9.953125 -4.59375 C 9.953125 -3.632812 9.753906 -2.796875 9.359375 -2.078125 C 8.972656 -1.367188 8.429688 -0.820312 7.734375 -0.4375 C 7.046875 -0.0507812 6.273438 0.140625 5.421875 0.140625 Z M 5.421875 -0.546875 C 6.078125 -0.546875 6.695312 -0.691406 7.28125 -0.984375 C 7.863281 -1.285156 8.328125 -1.738281 8.671875 -2.34375 C 9.023438 -2.945312 9.203125 -3.695312 9.203125 -4.59375 C 9.203125 -5.46875 9.023438 -6.207031 8.671875 -6.8125 C 8.328125 -7.425781 7.863281 -7.878906 7.28125 -8.171875 C 6.707031 -8.472656 6.09375 -8.625 5.4375 -8.625 C 4.769531 -8.625 4.148438 -8.472656 3.578125 -8.171875 C 3.015625 -7.878906 2.554688 -7.425781 2.203125 -6.8125 C 1.859375 -6.207031 1.6875 -5.46875 1.6875 -4.59375 C 1.6875 -3.695312 1.859375 -2.945312 2.203125 -2.34375 C 2.546875 -1.738281 3 -1.285156 3.5625 -0.984375 C 4.132812 -0.691406 4.753906 -0.546875 5.421875 -0.546875 Z M 5.421875 -0.546875 "/></g></g></g></svg>