<svg xmlns="http://www.w3.org/2000/svg" xmlns:xlink="http://www.w3.org/1999/xlink" width="200" zoomAndPan="magnify" viewBox="0 0 150 74.999997" height="100" preserveAspectRatio="xMidYMid meet" version="1.0"><defs><g/><clipPath id="6a438d9b59"><path d="M 108 22 L 120 22 L 120 34 L 108 34 Z M 108 22 " clip-rule="nonzero"/></clipPath><clipPath id="b25fd31b09"><path d="M 106.386719 24.03125 L 114.097656 16.90625 L 124.789062 28.472656 L 117.078125 35.597656 Z M 106.386719 24.03125 " clip-rule="nonzero"/></clipPath><clipPath id="c0f164dc81"><path d="M 106.386719 24.03125 L 114.097656 16.90625 L 124.789062 28.472656 L 117.078125 35.597656 Z M 106.386719 24.03125 " clip-rule="nonzero"/></clipPath><clipPath id="3e4587ade8"><path d="M 114 17 L 125 17 L 125 29 L 114 29 Z M 114 17 " clip-rule="nonzero"/></clipPath><clipPath id="9b7a0a6ccd"><path d="M 111.835938 18.996094 L 119.546875 11.867188 L 130.238281 23.433594 L 122.527344 30.5625 Z M 111.835938 18.996094 " clip-rule="nonzero"/></clipPath><clipPath id="4f667725c7"><path d="M 111.835938 18.996094 L 119.546875 11.867188 L 130.238281 23.433594 L 122.527344 30.5625 Z M 111.835938 18.996094 " clip-rule="nonzero"/></clipPath></defs><g clip-path="url(#6a438d9b59)"><g clip-path="url(#b25fd31b09)"><g clip-path="url(#c0f164dc81)"><path fill="#18cb96" d="M 119.253906 22.78125 L 110.054688 22.371094 C 108.277344 22.292969 107.976562 25.753906 110.082031 25.808594 L 115.808594 25.964844 L 115.371094 31.726562 C 115.238281 33.480469 118.660156 33.664062 118.757812 31.882812 Z M 119.253906 22.78125 " fill-opacity="1" fill-rule="nonzero"/></g></g></g><g clip-path="url(#3e4587ade8)"><g clip-path="url(#9b7a0a6ccd)"><g clip-path="url(#4f667725c7)"><path fill="#18cb96" d="M 124.707031 17.742188 L 115.503906 17.332031 C 113.726562 17.253906 113.429688 20.714844 115.535156 20.773438 L 121.257812 20.929688 L 120.820312 26.6875 C 120.6875 28.441406 124.109375 28.628906 124.207031 26.84375 Z M 124.707031 17.742188 " fill-opacity="1" fill-rule="nonzero"/></g></g></g><g fill="#373643" fill-opacity="1"><g transform="translate(37.743691, 41.162087)"><g><path d="M 4.734375 -4.84375 L 4.734375 -1.390625 C 4.734375 -0.921875 4.566406 -0.570312 4.234375 -0.34375 C 3.898438 -0.113281 3.539062 0 3.15625 0 C 2.75 0 2.382812 -0.113281 2.0625 -0.34375 C 1.75 -0.570312 1.59375 -0.914062 1.59375 -1.375 L 1.59375 -16.03125 C 1.59375 -16.445312 1.742188 -16.785156 2.046875 -17.046875 C 2.359375 -17.316406 2.734375 -17.453125 3.171875 -17.453125 L 8.765625 -17.453125 C 10.285156 -17.453125 11.582031 -17.179688 12.65625 -16.640625 C 13.738281 -16.109375 14.5625 -15.363281 15.125 -14.40625 C 15.695312 -13.445312 15.984375 -12.316406 15.984375 -11.015625 C 15.984375 -9.171875 15.34375 -7.679688 14.0625 -6.546875 C 12.78125 -5.410156 10.988281 -4.84375 8.6875 -4.84375 Z M 4.734375 -14.75 L 4.734375 -7.5625 L 8.6875 -7.5625 C 10.039062 -7.5625 11.070312 -7.875 11.78125 -8.5 C 12.5 -9.132812 12.859375 -9.972656 12.859375 -11.015625 C 12.859375 -12.148438 12.503906 -13.054688 11.796875 -13.734375 C 11.097656 -14.410156 10.097656 -14.75 8.796875 -14.75 Z M 4.734375 -14.75 "/></g></g></g><g fill="#373643" fill-opacity="1"><g transform="translate(54.239598, 41.162087)"><g><path d="M 7.40625 -13.953125 C 7.894531 -13.953125 8.285156 -13.84375 8.578125 -13.625 C 8.867188 -13.414062 9.015625 -13.078125 9.015625 -12.609375 C 9.015625 -12.171875 8.867188 -11.820312 8.578125 -11.5625 C 8.285156 -11.3125 7.894531 -11.1875 7.40625 -11.1875 C 6.25 -11.1875 5.4375 -10.773438 4.96875 -9.953125 C 4.507812 -9.128906 4.28125 -8.015625 4.28125 -6.609375 L 4.28125 -1.390625 C 4.28125 -0.992188 4.128906 -0.660156 3.828125 -0.390625 C 3.535156 -0.128906 3.179688 0 2.765625 0 C 2.296875 0 1.910156 -0.128906 1.609375 -0.390625 C 1.316406 -0.660156 1.171875 -0.992188 1.171875 -1.390625 L 1.171875 -12.546875 C 1.171875 -12.984375 1.335938 -13.328125 1.671875 -13.578125 C 2.015625 -13.828125 2.378906 -13.953125 2.765625 -13.953125 C 3.148438 -13.953125 3.5 -13.832031 3.8125 -13.59375 C 4.125 -13.351562 4.28125 -13.003906 4.28125 -12.546875 L 4.28125 -12.390625 C 4.675781 -12.921875 5.140625 -13.3125 5.671875 -13.5625 C 6.203125 -13.820312 6.78125 -13.953125 7.40625 -13.953125 Z M 7.40625 -13.953125 "/></g></g></g><g fill="#373643" fill-opacity="1"><g transform="translate(62.432624, 41.162087)"><g><path d="M 7.84375 -14.21875 C 9.300781 -14.21875 10.578125 -13.910156 11.671875 -13.296875 C 12.765625 -12.691406 13.613281 -11.835938 14.21875 -10.734375 C 14.820312 -9.640625 15.125 -8.363281 15.125 -6.90625 C 15.101562 -5.476562 14.785156 -4.222656 14.171875 -3.140625 C 13.566406 -2.066406 12.71875 -1.226562 11.625 -0.625 C 10.539062 -0.0195312 9.28125 0.28125 7.84375 0.28125 C 6.414062 0.28125 5.148438 -0.0195312 4.046875 -0.625 C 2.953125 -1.226562 2.097656 -2.066406 1.484375 -3.140625 C 0.878906 -4.222656 0.566406 -5.476562 0.546875 -6.90625 C 0.546875 -8.363281 0.851562 -9.640625 1.46875 -10.734375 C 2.082031 -11.835938 2.9375 -12.691406 4.03125 -13.296875 C 5.125 -13.910156 6.394531 -14.21875 7.84375 -14.21875 Z M 7.84375 -2.46875 C 9.082031 -2.46875 10.070312 -2.878906 10.8125 -3.703125 C 11.550781 -4.523438 11.921875 -5.59375 11.921875 -6.90625 C 11.921875 -8.257812 11.550781 -9.359375 10.8125 -10.203125 C 10.070312 -11.054688 9.082031 -11.484375 7.84375 -11.484375 C 6.613281 -11.484375 5.625 -11.054688 4.875 -10.203125 C 4.125 -9.359375 3.75 -8.257812 3.75 -6.90625 C 3.75 -5.59375 4.125 -4.523438 4.875 -3.703125 C 5.625 -2.878906 6.613281 -2.46875 7.84375 -2.46875 Z M 7.84375 -2.46875 "/></g></g></g><g fill="#373643" fill-opacity="1"><g transform="translate(77.640625, 41.162087)"><g><path d="M 4.734375 -14.796875 L 4.734375 -9.34375 L 13.515625 -9.34375 C 13.984375 -9.34375 14.335938 -9.203125 14.578125 -8.921875 C 14.816406 -8.640625 14.9375 -8.332031 14.9375 -8 C 14.9375 -7.675781 14.816406 -7.378906 14.578125 -7.109375 C 14.335938 -6.847656 13.984375 -6.71875 13.515625 -6.71875 L 4.734375 -6.71875 L 4.734375 -1.484375 C 4.734375 -1.003906 4.566406 -0.632812 4.234375 -0.375 C 3.910156 -0.125 3.554688 0 3.171875 0 C 2.773438 0 2.410156 -0.125 2.078125 -0.375 C 1.753906 -0.632812 1.59375 -0.992188 1.59375 -1.453125 L 1.59375 -15.84375 C 1.59375 -16.28125 1.769531 -16.65625 2.125 -16.96875 C 2.476562 -17.289062 2.894531 -17.453125 3.375 -17.453125 L 14 -17.453125 C 14.5 -17.453125 14.863281 -17.316406 15.09375 -17.046875 C 15.332031 -16.773438 15.453125 -16.460938 15.453125 -16.109375 C 15.453125 -15.785156 15.332031 -15.484375 15.09375 -15.203125 C 14.863281 -14.929688 14.5 -14.796875 14 -14.796875 Z M 4.734375 -14.796875 "/></g></g></g><g fill="#373643" fill-opacity="1"><g transform="translate(93.506277, 41.162087)"><g><path d="M 4.109375 -16 C 4.109375 -15.539062 3.9375 -15.195312 3.59375 -14.96875 C 3.257812 -14.75 2.898438 -14.640625 2.515625 -14.640625 C 2.117188 -14.640625 1.753906 -14.75 1.421875 -14.96875 C 1.097656 -15.195312 0.9375 -15.539062 0.9375 -16 L 0.9375 -16.359375 C 0.9375 -16.835938 1.097656 -17.1875 1.421875 -17.40625 C 1.753906 -17.625 2.117188 -17.734375 2.515625 -17.734375 C 2.898438 -17.734375 3.257812 -17.625 3.59375 -17.40625 C 3.9375 -17.1875 4.109375 -16.835938 4.109375 -16.359375 Z M 0.953125 -12.609375 C 0.953125 -13.046875 1.117188 -13.378906 1.453125 -13.609375 C 1.796875 -13.835938 2.148438 -13.953125 2.515625 -13.953125 C 2.898438 -13.953125 3.253906 -13.835938 3.578125 -13.609375 C 3.910156 -13.378906 4.078125 -13.054688 4.078125 -12.640625 L 4.078125 -1.34375 C 4.078125 -0.882812 3.910156 -0.546875 3.578125 -0.328125 C 3.253906 -0.109375 2.898438 0 2.515625 0 C 2.148438 0 1.796875 -0.109375 1.453125 -0.328125 C 1.117188 -0.546875 0.953125 -0.882812 0.953125 -1.34375 Z M 0.953125 -12.609375 "/></g></g></g><g fill="#373643" fill-opacity="1"><g transform="translate(98.000001, 41.162087)"><g><path d="M 12.65625 -2.609375 C 13.019531 -2.203125 13.1875 -1.796875 13.15625 -1.390625 C 13.132812 -0.992188 12.988281 -0.660156 12.71875 -0.390625 C 12.445312 -0.128906 12.117188 0 11.734375 0 C 11.304688 0 10.894531 -0.203125 10.5 -0.609375 L 6.578125 -4.84375 L 2.6875 -0.65625 C 2.269531 -0.21875 1.8125 0 1.3125 0 C 0.945312 0 0.625 -0.117188 0.34375 -0.359375 C 0.0703125 -0.609375 -0.0664062 -0.921875 -0.078125 -1.296875 C -0.0976562 -1.671875 0.0703125 -2.0625 0.4375 -2.46875 L 4.65625 -7.015625 L 0.546875 -11.453125 C 0.179688 -11.859375 0.0078125 -12.25 0.03125 -12.625 C 0.0507812 -13.007812 0.203125 -13.328125 0.484375 -13.578125 C 0.765625 -13.828125 1.097656 -13.953125 1.484375 -13.953125 C 1.722656 -13.953125 1.960938 -13.894531 2.203125 -13.78125 C 2.453125 -13.675781 2.695312 -13.492188 2.9375 -13.234375 L 6.625 -9.265625 L 10.390625 -13.296875 C 10.609375 -13.523438 10.832031 -13.691406 11.0625 -13.796875 C 11.300781 -13.898438 11.53125 -13.953125 11.75 -13.953125 C 12.132812 -13.953125 12.460938 -13.832031 12.734375 -13.59375 C 13.015625 -13.351562 13.160156 -13.046875 13.171875 -12.671875 C 13.191406 -12.296875 13.015625 -11.898438 12.640625 -11.484375 L 8.515625 -7.078125 Z M 12.65625 -2.609375 "/></g></g></g><g fill="#373643" fill-opacity="1"><g transform="translate(16.743269, 51.848864)"><g><path d="M 2.453125 0.0625 C 2.066406 0.0625 1.722656 -0.00390625 1.421875 -0.140625 C 1.128906 -0.285156 0.898438 -0.472656 0.734375 -0.703125 C 0.578125 -0.941406 0.488281 -1.203125 0.46875 -1.484375 L 0.875 -1.484375 C 0.914062 -1.171875 1.0625 -0.890625 1.3125 -0.640625 C 1.5625 -0.398438 1.941406 -0.28125 2.453125 -0.28125 C 2.753906 -0.28125 3.015625 -0.332031 3.234375 -0.4375 C 3.460938 -0.550781 3.632812 -0.703125 3.75 -0.890625 C 3.875 -1.078125 3.9375 -1.285156 3.9375 -1.515625 C 3.9375 -1.804688 3.863281 -2.035156 3.71875 -2.203125 C 3.582031 -2.378906 3.40625 -2.507812 3.1875 -2.59375 C 2.976562 -2.6875 2.695312 -2.78125 2.34375 -2.875 C 1.957031 -2.976562 1.644531 -3.082031 1.40625 -3.1875 C 1.164062 -3.289062 0.960938 -3.453125 0.796875 -3.671875 C 0.628906 -3.890625 0.546875 -4.179688 0.546875 -4.546875 C 0.546875 -4.835938 0.625 -5.101562 0.78125 -5.34375 C 0.9375 -5.582031 1.15625 -5.769531 1.4375 -5.90625 C 1.71875 -6.039062 2.039062 -6.109375 2.40625 -6.109375 C 2.9375 -6.109375 3.363281 -5.976562 3.6875 -5.71875 C 4.019531 -5.457031 4.21875 -5.132812 4.28125 -4.75 L 3.875 -4.75 C 3.84375 -4.90625 3.765625 -5.0625 3.640625 -5.21875 C 3.523438 -5.375 3.359375 -5.503906 3.140625 -5.609375 C 2.929688 -5.722656 2.675781 -5.78125 2.375 -5.78125 C 1.96875 -5.78125 1.625 -5.664062 1.34375 -5.4375 C 1.070312 -5.21875 0.9375 -4.925781 0.9375 -4.5625 C 0.9375 -4.269531 1.007812 -4.035156 1.15625 -3.859375 C 1.300781 -3.679688 1.476562 -3.546875 1.6875 -3.453125 C 1.894531 -3.367188 2.175781 -3.28125 2.53125 -3.1875 C 2.925781 -3.082031 3.238281 -2.976562 3.46875 -2.875 C 3.707031 -2.769531 3.910156 -2.609375 4.078125 -2.390625 C 4.242188 -2.179688 4.328125 -1.894531 4.328125 -1.53125 C 4.328125 -1.257812 4.253906 -1 4.109375 -0.75 C 3.960938 -0.507812 3.75 -0.3125 3.46875 -0.15625 C 3.1875 -0.0078125 2.847656 0.0625 2.453125 0.0625 Z M 2.453125 0.0625 "/></g></g></g><g fill="#373643" fill-opacity="1"><g transform="translate(21.191321, 51.848864)"><g><path d="M 4.921875 -2.65625 C 4.921875 -2.445312 4.914062 -2.289062 4.90625 -2.1875 L 0.859375 -2.1875 C 0.867188 -1.769531 0.957031 -1.414062 1.125 -1.125 C 1.300781 -0.84375 1.53125 -0.628906 1.8125 -0.484375 C 2.101562 -0.335938 2.414062 -0.265625 2.75 -0.265625 C 3.207031 -0.265625 3.585938 -0.378906 3.890625 -0.609375 C 4.203125 -0.835938 4.398438 -1.144531 4.484375 -1.53125 L 4.890625 -1.53125 C 4.796875 -1.050781 4.554688 -0.664062 4.171875 -0.375 C 3.796875 -0.0820312 3.320312 0.0625 2.75 0.0625 C 2.3125 0.0625 1.914062 -0.03125 1.5625 -0.21875 C 1.21875 -0.414062 0.945312 -0.695312 0.75 -1.0625 C 0.5625 -1.425781 0.46875 -1.851562 0.46875 -2.34375 C 0.46875 -2.832031 0.5625 -3.257812 0.75 -3.625 C 0.945312 -3.988281 1.21875 -4.265625 1.5625 -4.453125 C 1.90625 -4.648438 2.300781 -4.75 2.75 -4.75 C 3.195312 -4.75 3.582031 -4.648438 3.90625 -4.453125 C 4.238281 -4.265625 4.488281 -4.007812 4.65625 -3.6875 C 4.832031 -3.363281 4.921875 -3.019531 4.921875 -2.65625 Z M 4.53125 -2.515625 C 4.550781 -2.921875 4.476562 -3.269531 4.3125 -3.5625 C 4.15625 -3.851562 3.929688 -4.066406 3.640625 -4.203125 C 3.359375 -4.347656 3.054688 -4.421875 2.734375 -4.421875 C 2.410156 -4.421875 2.109375 -4.347656 1.828125 -4.203125 C 1.546875 -4.066406 1.316406 -3.851562 1.140625 -3.5625 C 0.960938 -3.269531 0.867188 -2.921875 0.859375 -2.515625 Z M 4.53125 -2.515625 "/></g></g></g><g fill="#373643" fill-opacity="1"><g transform="translate(26.251426, 51.848864)"><g><path d="M 4.671875 -4.6875 L 4.671875 0 L 4.28125 0 L 4.28125 -1.015625 C 4.144531 -0.660156 3.921875 -0.390625 3.609375 -0.203125 C 3.304688 -0.015625 2.957031 0.078125 2.5625 0.078125 C 2 0.078125 1.539062 -0.09375 1.1875 -0.4375 C 0.84375 -0.78125 0.671875 -1.285156 0.671875 -1.953125 L 0.671875 -4.6875 L 1.046875 -4.6875 L 1.046875 -1.984375 C 1.046875 -1.421875 1.1875 -0.992188 1.46875 -0.703125 C 1.75 -0.410156 2.128906 -0.265625 2.609375 -0.265625 C 3.117188 -0.265625 3.523438 -0.421875 3.828125 -0.734375 C 4.128906 -1.054688 4.28125 -1.535156 4.28125 -2.171875 L 4.28125 -4.6875 Z M 4.671875 -4.6875 "/></g></g></g><g fill="#373643" fill-opacity="1"><g transform="translate(31.294292, 51.848864)"><g/></g></g><g fill="#373643" fill-opacity="1"><g transform="translate(33.397589, 51.848864)"><g><path d="M 1.09375 -3.453125 C 1.226562 -3.828125 1.46875 -4.132812 1.8125 -4.375 C 2.164062 -4.625 2.585938 -4.75 3.078125 -4.75 C 3.515625 -4.75 3.90625 -4.648438 4.25 -4.453125 C 4.59375 -4.253906 4.859375 -3.972656 5.046875 -3.609375 C 5.242188 -3.253906 5.34375 -2.832031 5.34375 -2.34375 C 5.34375 -1.863281 5.242188 -1.441406 5.046875 -1.078125 C 4.859375 -0.710938 4.59375 -0.429688 4.25 -0.234375 C 3.90625 -0.0351562 3.515625 0.0625 3.078125 0.0625 C 2.585938 0.0625 2.164062 -0.0546875 1.8125 -0.296875 C 1.46875 -0.546875 1.226562 -0.851562 1.09375 -1.21875 L 1.09375 2.203125 L 0.703125 2.203125 L 0.703125 -4.6875 L 1.09375 -4.6875 Z M 4.9375 -2.34375 C 4.9375 -2.769531 4.851562 -3.140625 4.6875 -3.453125 C 4.53125 -3.765625 4.304688 -4 4.015625 -4.15625 C 3.734375 -4.320312 3.398438 -4.40625 3.015625 -4.40625 C 2.648438 -4.40625 2.320312 -4.320312 2.03125 -4.15625 C 1.738281 -3.988281 1.507812 -3.742188 1.34375 -3.421875 C 1.175781 -3.109375 1.09375 -2.75 1.09375 -2.34375 C 1.09375 -1.925781 1.175781 -1.5625 1.34375 -1.25 C 1.507812 -0.9375 1.738281 -0.695312 2.03125 -0.53125 C 2.320312 -0.363281 2.648438 -0.28125 3.015625 -0.28125 C 3.398438 -0.28125 3.734375 -0.363281 4.015625 -0.53125 C 4.304688 -0.695312 4.53125 -0.929688 4.6875 -1.234375 C 4.851562 -1.546875 4.9375 -1.914062 4.9375 -2.34375 Z M 4.9375 -2.34375 "/></g></g></g><g fill="#373643" fill-opacity="1"><g transform="translate(38.871475, 51.848864)"><g><path d="M 1.09375 -3.71875 C 1.207031 -4.0625 1.410156 -4.320312 1.703125 -4.5 C 1.992188 -4.6875 2.367188 -4.78125 2.828125 -4.78125 L 2.828125 -4.375 L 2.703125 -4.375 C 2.242188 -4.375 1.859375 -4.242188 1.546875 -3.984375 C 1.242188 -3.722656 1.09375 -3.296875 1.09375 -2.703125 L 1.09375 0 L 0.703125 0 L 0.703125 -4.6875 L 1.09375 -4.6875 Z M 1.09375 -3.71875 "/></g></g></g><g fill="#373643" fill-opacity="1"><g transform="translate(41.560959, 51.848864)"><g><path d="M 2.765625 0.0625 C 2.328125 0.0625 1.929688 -0.03125 1.578125 -0.21875 C 1.234375 -0.414062 0.960938 -0.695312 0.765625 -1.0625 C 0.566406 -1.425781 0.46875 -1.851562 0.46875 -2.34375 C 0.46875 -2.832031 0.566406 -3.257812 0.765625 -3.625 C 0.960938 -3.988281 1.238281 -4.265625 1.59375 -4.453125 C 1.945312 -4.648438 2.34375 -4.75 2.78125 -4.75 C 3.21875 -4.75 3.613281 -4.648438 3.96875 -4.453125 C 4.320312 -4.265625 4.597656 -3.988281 4.796875 -3.625 C 4.992188 -3.257812 5.09375 -2.832031 5.09375 -2.34375 C 5.09375 -1.851562 4.988281 -1.425781 4.78125 -1.0625 C 4.582031 -0.695312 4.304688 -0.414062 3.953125 -0.21875 C 3.597656 -0.03125 3.203125 0.0625 2.765625 0.0625 Z M 2.765625 -0.28125 C 3.109375 -0.28125 3.425781 -0.351562 3.71875 -0.5 C 4.019531 -0.65625 4.257812 -0.890625 4.4375 -1.203125 C 4.613281 -1.515625 4.703125 -1.894531 4.703125 -2.34375 C 4.703125 -2.789062 4.613281 -3.171875 4.4375 -3.484375 C 4.257812 -3.796875 4.019531 -4.023438 3.71875 -4.171875 C 3.425781 -4.328125 3.113281 -4.40625 2.78125 -4.40625 C 2.4375 -4.40625 2.117188 -4.328125 1.828125 -4.171875 C 1.535156 -4.023438 1.300781 -3.796875 1.125 -3.484375 C 0.945312 -3.171875 0.859375 -2.789062 0.859375 -2.34375 C 0.859375 -1.894531 0.945312 -1.515625 1.125 -1.203125 C 1.300781 -0.890625 1.535156 -0.65625 1.828125 -0.5 C 2.117188 -0.351562 2.429688 -0.28125 2.765625 -0.28125 Z M 2.765625 -0.28125 "/></g></g></g><g fill="#373643" fill-opacity="1"><g transform="translate(46.793468, 51.848864)"><g><path d="M 1.09375 -3.453125 C 1.238281 -3.828125 1.484375 -4.132812 1.828125 -4.375 C 2.171875 -4.625 2.585938 -4.75 3.078125 -4.75 C 3.515625 -4.75 3.90625 -4.648438 4.25 -4.453125 C 4.59375 -4.253906 4.859375 -3.972656 5.046875 -3.609375 C 5.242188 -3.253906 5.34375 -2.832031 5.34375 -2.34375 C 5.34375 -1.863281 5.242188 -1.441406 5.046875 -1.078125 C 4.859375 -0.710938 4.59375 -0.429688 4.25 -0.234375 C 3.90625 -0.0351562 3.515625 0.0625 3.078125 0.0625 C 2.585938 0.0625 2.164062 -0.0546875 1.8125 -0.296875 C 1.46875 -0.535156 1.226562 -0.84375 1.09375 -1.21875 L 1.09375 0 L 0.703125 0 L 0.703125 -6.375 L 1.09375 -6.375 Z M 4.9375 -2.34375 C 4.9375 -2.769531 4.851562 -3.140625 4.6875 -3.453125 C 4.53125 -3.765625 4.304688 -4 4.015625 -4.15625 C 3.734375 -4.320312 3.398438 -4.40625 3.015625 -4.40625 C 2.648438 -4.40625 2.320312 -4.320312 2.03125 -4.15625 C 1.738281 -3.988281 1.507812 -3.742188 1.34375 -3.421875 C 1.175781 -3.109375 1.09375 -2.75 1.09375 -2.34375 C 1.09375 -1.925781 1.175781 -1.5625 1.34375 -1.25 C 1.507812 -0.9375 1.738281 -0.695312 2.03125 -0.53125 C 2.320312 -0.363281 2.648438 -0.28125 3.015625 -0.28125 C 3.398438 -0.28125 3.734375 -0.363281 4.015625 -0.53125 C 4.304688 -0.695312 4.53125 -0.929688 4.6875 -1.234375 C 4.851562 -1.546875 4.9375 -1.914062 4.9375 -2.34375 Z M 4.9375 -2.34375 "/></g></g></g><g fill="#373643" fill-opacity="1"><g transform="translate(52.267355, 51.848864)"><g><path d="M 1.09375 -6.375 L 1.09375 0 L 0.703125 0 L 0.703125 -6.375 Z M 1.09375 -6.375 "/></g></g></g><g fill="#373643" fill-opacity="1"><g transform="translate(53.749978, 51.848864)"><g><path d="M 4.921875 -2.65625 C 4.921875 -2.445312 4.914062 -2.289062 4.90625 -2.1875 L 0.859375 -2.1875 C 0.867188 -1.769531 0.957031 -1.414062 1.125 -1.125 C 1.300781 -0.84375 1.53125 -0.628906 1.8125 -0.484375 C 2.101562 -0.335938 2.414062 -0.265625 2.75 -0.265625 C 3.207031 -0.265625 3.585938 -0.378906 3.890625 -0.609375 C 4.203125 -0.835938 4.398438 -1.144531 4.484375 -1.53125 L 4.890625 -1.53125 C 4.796875 -1.050781 4.554688 -0.664062 4.171875 -0.375 C 3.796875 -0.0820312 3.320312 0.0625 2.75 0.0625 C 2.3125 0.0625 1.914062 -0.03125 1.5625 -0.21875 C 1.21875 -0.414062 0.945312 -0.695312 0.75 -1.0625 C 0.5625 -1.425781 0.46875 -1.851562 0.46875 -2.34375 C 0.46875 -2.832031 0.5625 -3.257812 0.75 -3.625 C 0.945312 -3.988281 1.21875 -4.265625 1.5625 -4.453125 C 1.90625 -4.648438 2.300781 -4.75 2.75 -4.75 C 3.195312 -4.75 3.582031 -4.648438 3.90625 -4.453125 C 4.238281 -4.265625 4.488281 -4.007812 4.65625 -3.6875 C 4.832031 -3.363281 4.921875 -3.019531 4.921875 -2.65625 Z M 4.53125 -2.515625 C 4.550781 -2.921875 4.476562 -3.269531 4.3125 -3.5625 C 4.15625 -3.851562 3.929688 -4.066406 3.640625 -4.203125 C 3.359375 -4.347656 3.054688 -4.421875 2.734375 -4.421875 C 2.410156 -4.421875 2.109375 -4.347656 1.828125 -4.203125 C 1.546875 -4.066406 1.316406 -3.851562 1.140625 -3.5625 C 0.960938 -3.269531 0.867188 -2.921875 0.859375 -2.515625 Z M 4.53125 -2.515625 "/></g></g></g><g fill="#373643" fill-opacity="1"><g transform="translate(58.810082, 51.848864)"><g><path d="M 6.25 -4.78125 C 6.78125 -4.78125 7.210938 -4.609375 7.546875 -4.265625 C 7.890625 -3.921875 8.0625 -3.414062 8.0625 -2.75 L 8.0625 0 L 7.6875 0 L 7.6875 -2.71875 C 7.6875 -3.269531 7.550781 -3.691406 7.28125 -3.984375 C 7.007812 -4.285156 6.644531 -4.4375 6.1875 -4.4375 C 5.695312 -4.4375 5.304688 -4.269531 5.015625 -3.9375 C 4.722656 -3.601562 4.578125 -3.125 4.578125 -2.5 L 4.578125 0 L 4.203125 0 L 4.203125 -2.71875 C 4.203125 -3.269531 4.066406 -3.691406 3.796875 -3.984375 C 3.523438 -4.285156 3.160156 -4.4375 2.703125 -4.4375 C 2.210938 -4.4375 1.820312 -4.269531 1.53125 -3.9375 C 1.238281 -3.601562 1.09375 -3.125 1.09375 -2.5 L 1.09375 0 L 0.703125 0 L 0.703125 -4.6875 L 1.09375 -4.6875 L 1.09375 -3.671875 C 1.226562 -4.035156 1.441406 -4.3125 1.734375 -4.5 C 2.035156 -4.6875 2.378906 -4.78125 2.765625 -4.78125 C 3.179688 -4.78125 3.546875 -4.664062 3.859375 -4.4375 C 4.171875 -4.21875 4.382812 -3.894531 4.5 -3.46875 C 4.601562 -3.894531 4.8125 -4.21875 5.125 -4.4375 C 5.445312 -4.664062 5.820312 -4.78125 6.25 -4.78125 Z M 6.25 -4.78125 "/></g></g></g><g fill="#373643" fill-opacity="1"><g transform="translate(67.21491, 51.848864)"><g><path d="M 0.46875 -2.34375 C 0.46875 -2.832031 0.5625 -3.253906 0.75 -3.609375 C 0.945312 -3.972656 1.210938 -4.253906 1.546875 -4.453125 C 1.890625 -4.648438 2.28125 -4.75 2.71875 -4.75 C 3.21875 -4.75 3.640625 -4.625 3.984375 -4.375 C 4.328125 -4.132812 4.566406 -3.828125 4.703125 -3.453125 L 4.703125 -4.6875 L 5.09375 -4.6875 L 5.09375 0 L 4.703125 0 L 4.703125 -1.234375 C 4.566406 -0.859375 4.320312 -0.546875 3.96875 -0.296875 C 3.625 -0.0546875 3.207031 0.0625 2.71875 0.0625 C 2.28125 0.0625 1.890625 -0.0351562 1.546875 -0.234375 C 1.210938 -0.429688 0.945312 -0.710938 0.75 -1.078125 C 0.5625 -1.441406 0.46875 -1.863281 0.46875 -2.34375 Z M 4.703125 -2.34375 C 4.703125 -2.75 4.617188 -3.109375 4.453125 -3.421875 C 4.285156 -3.742188 4.054688 -3.988281 3.765625 -4.15625 C 3.472656 -4.320312 3.144531 -4.40625 2.78125 -4.40625 C 2.394531 -4.40625 2.054688 -4.320312 1.765625 -4.15625 C 1.484375 -4 1.257812 -3.765625 1.09375 -3.453125 C 0.9375 -3.140625 0.859375 -2.769531 0.859375 -2.34375 C 0.859375 -1.914062 0.9375 -1.546875 1.09375 -1.234375 C 1.257812 -0.929688 1.488281 -0.695312 1.78125 -0.53125 C 2.070312 -0.363281 2.40625 -0.28125 2.78125 -0.28125 C 3.144531 -0.28125 3.472656 -0.363281 3.765625 -0.53125 C 4.054688 -0.695312 4.285156 -0.9375 4.453125 -1.25 C 4.617188 -1.5625 4.703125 -1.925781 4.703125 -2.34375 Z M 4.703125 -2.34375 "/></g></g></g><g fill="#373643" fill-opacity="1"><g transform="translate(72.688797, 51.848864)"><g><path d="M 0.96875 -0.90625 L 0.15625 1.296875 L -0.140625 1.296875 L 0.515625 -0.90625 Z M 0.96875 -0.90625 "/></g></g></g><g fill="#373643" fill-opacity="1"><g transform="translate(73.593857, 51.848864)"><g/></g></g><g fill="#373643" fill-opacity="1"><g transform="translate(75.697153, 51.848864)"><g><path d="M 2.828125 -4.78125 C 3.378906 -4.78125 3.828125 -4.609375 4.171875 -4.265625 C 4.523438 -3.921875 4.703125 -3.414062 4.703125 -2.75 L 4.703125 0 L 4.328125 0 L 4.328125 -2.71875 C 4.328125 -3.269531 4.1875 -3.691406 3.90625 -3.984375 C 3.625 -4.285156 3.242188 -4.4375 2.765625 -4.4375 C 2.253906 -4.4375 1.847656 -4.273438 1.546875 -3.953125 C 1.242188 -3.628906 1.09375 -3.15625 1.09375 -2.53125 L 1.09375 0 L 0.703125 0 L 0.703125 -4.6875 L 1.09375 -4.6875 L 1.09375 -3.6875 C 1.226562 -4.039062 1.445312 -4.3125 1.75 -4.5 C 2.0625 -4.6875 2.421875 -4.78125 2.828125 -4.78125 Z M 2.828125 -4.78125 "/></g></g></g><g fill="#373643" fill-opacity="1"><g transform="translate(80.740018, 51.848864)"><g><path d="M 2.765625 0.0625 C 2.328125 0.0625 1.929688 -0.03125 1.578125 -0.21875 C 1.234375 -0.414062 0.960938 -0.695312 0.765625 -1.0625 C 0.566406 -1.425781 0.46875 -1.851562 0.46875 -2.34375 C 0.46875 -2.832031 0.566406 -3.257812 0.765625 -3.625 C 0.960938 -3.988281 1.238281 -4.265625 1.59375 -4.453125 C 1.945312 -4.648438 2.34375 -4.75 2.78125 -4.75 C 3.21875 -4.75 3.613281 -4.648438 3.96875 -4.453125 C 4.320312 -4.265625 4.597656 -3.988281 4.796875 -3.625 C 4.992188 -3.257812 5.09375 -2.832031 5.09375 -2.34375 C 5.09375 -1.851562 4.988281 -1.425781 4.78125 -1.0625 C 4.582031 -0.695312 4.304688 -0.414062 3.953125 -0.21875 C 3.597656 -0.03125 3.203125 0.0625 2.765625 0.0625 Z M 2.765625 -0.28125 C 3.109375 -0.28125 3.425781 -0.351562 3.71875 -0.5 C 4.019531 -0.65625 4.257812 -0.890625 4.4375 -1.203125 C 4.613281 -1.515625 4.703125 -1.894531 4.703125 -2.34375 C 4.703125 -2.789062 4.613281 -3.171875 4.4375 -3.484375 C 4.257812 -3.796875 4.019531 -4.023438 3.71875 -4.171875 C 3.425781 -4.328125 3.113281 -4.40625 2.78125 -4.40625 C 2.4375 -4.40625 2.117188 -4.328125 1.828125 -4.171875 C 1.535156 -4.023438 1.300781 -3.796875 1.125 -3.484375 C 0.945312 -3.171875 0.859375 -2.789062 0.859375 -2.34375 C 0.859375 -1.894531 0.945312 -1.515625 1.125 -1.203125 C 1.300781 -0.890625 1.535156 -0.65625 1.828125 -0.5 C 2.117188 -0.351562 2.429688 -0.28125 2.765625 -0.28125 Z M 2.765625 -0.28125 "/></g></g></g><g fill="#373643" fill-opacity="1"><g transform="translate(85.972527, 51.848864)"><g><path d="M 2.265625 0.0625 C 1.742188 0.0625 1.316406 -0.0507812 0.984375 -0.28125 C 0.648438 -0.507812 0.46875 -0.835938 0.4375 -1.265625 L 0.828125 -1.265625 C 0.859375 -0.953125 1 -0.707031 1.25 -0.53125 C 1.5 -0.351562 1.835938 -0.265625 2.265625 -0.265625 C 2.617188 -0.265625 2.898438 -0.351562 3.109375 -0.53125 C 3.328125 -0.71875 3.4375 -0.941406 3.4375 -1.203125 C 3.4375 -1.390625 3.378906 -1.539062 3.265625 -1.65625 C 3.148438 -1.78125 3.007812 -1.875 2.84375 -1.9375 C 2.675781 -2 2.453125 -2.066406 2.171875 -2.140625 C 1.816406 -2.234375 1.535156 -2.320312 1.328125 -2.40625 C 1.117188 -2.5 0.9375 -2.632812 0.78125 -2.8125 C 0.632812 -2.988281 0.5625 -3.226562 0.5625 -3.53125 C 0.5625 -3.75 0.625 -3.953125 0.75 -4.140625 C 0.882812 -4.328125 1.070312 -4.472656 1.3125 -4.578125 C 1.550781 -4.691406 1.816406 -4.75 2.109375 -4.75 C 2.597656 -4.75 2.992188 -4.625 3.296875 -4.375 C 3.597656 -4.132812 3.757812 -3.796875 3.78125 -3.359375 L 3.390625 -3.359375 C 3.378906 -3.671875 3.257812 -3.925781 3.03125 -4.125 C 2.8125 -4.320312 2.503906 -4.421875 2.109375 -4.421875 C 1.773438 -4.421875 1.5 -4.332031 1.28125 -4.15625 C 1.0625 -3.988281 0.953125 -3.78125 0.953125 -3.53125 C 0.953125 -3.3125 1.007812 -3.132812 1.125 -3 C 1.25 -2.863281 1.398438 -2.757812 1.578125 -2.6875 C 1.765625 -2.613281 2.007812 -2.535156 2.3125 -2.453125 C 2.632812 -2.367188 2.894531 -2.285156 3.09375 -2.203125 C 3.289062 -2.117188 3.457031 -2 3.59375 -1.84375 C 3.738281 -1.6875 3.8125 -1.472656 3.8125 -1.203125 C 3.8125 -0.960938 3.742188 -0.742188 3.609375 -0.546875 C 3.484375 -0.359375 3.300781 -0.207031 3.0625 -0.09375 C 2.820312 0.0078125 2.554688 0.0625 2.265625 0.0625 Z M 2.265625 0.0625 "/></g></g></g><g fill="#373643" fill-opacity="1"><g transform="translate(89.929217, 51.848864)"><g><path d="M 2.265625 0.0625 C 1.742188 0.0625 1.316406 -0.0507812 0.984375 -0.28125 C 0.648438 -0.507812 0.46875 -0.835938 0.4375 -1.265625 L 0.828125 -1.265625 C 0.859375 -0.953125 1 -0.707031 1.25 -0.53125 C 1.5 -0.351562 1.835938 -0.265625 2.265625 -0.265625 C 2.617188 -0.265625 2.898438 -0.351562 3.109375 -0.53125 C 3.328125 -0.71875 3.4375 -0.941406 3.4375 -1.203125 C 3.4375 -1.390625 3.378906 -1.539062 3.265625 -1.65625 C 3.148438 -1.78125 3.007812 -1.875 2.84375 -1.9375 C 2.675781 -2 2.453125 -2.066406 2.171875 -2.140625 C 1.816406 -2.234375 1.535156 -2.320312 1.328125 -2.40625 C 1.117188 -2.5 0.9375 -2.632812 0.78125 -2.8125 C 0.632812 -2.988281 0.5625 -3.226562 0.5625 -3.53125 C 0.5625 -3.75 0.625 -3.953125 0.75 -4.140625 C 0.882812 -4.328125 1.070312 -4.472656 1.3125 -4.578125 C 1.550781 -4.691406 1.816406 -4.75 2.109375 -4.75 C 2.597656 -4.75 2.992188 -4.625 3.296875 -4.375 C 3.597656 -4.132812 3.757812 -3.796875 3.78125 -3.359375 L 3.390625 -3.359375 C 3.378906 -3.671875 3.257812 -3.925781 3.03125 -4.125 C 2.8125 -4.320312 2.503906 -4.421875 2.109375 -4.421875 C 1.773438 -4.421875 1.5 -4.332031 1.28125 -4.15625 C 1.0625 -3.988281 0.953125 -3.78125 0.953125 -3.53125 C 0.953125 -3.3125 1.007812 -3.132812 1.125 -3 C 1.25 -2.863281 1.398438 -2.757812 1.578125 -2.6875 C 1.765625 -2.613281 2.007812 -2.535156 2.3125 -2.453125 C 2.632812 -2.367188 2.894531 -2.285156 3.09375 -2.203125 C 3.289062 -2.117188 3.457031 -2 3.59375 -1.84375 C 3.738281 -1.6875 3.8125 -1.472656 3.8125 -1.203125 C 3.8125 -0.960938 3.742188 -0.742188 3.609375 -0.546875 C 3.484375 -0.359375 3.300781 -0.207031 3.0625 -0.09375 C 2.820312 0.0078125 2.554688 0.0625 2.265625 0.0625 Z M 2.265625 0.0625 "/></g></g></g><g fill="#373643" fill-opacity="1"><g transform="translate(93.885907, 51.848864)"><g><path d="M 0.46875 -2.34375 C 0.46875 -2.832031 0.5625 -3.253906 0.75 -3.609375 C 0.945312 -3.972656 1.210938 -4.253906 1.546875 -4.453125 C 1.890625 -4.648438 2.28125 -4.75 2.71875 -4.75 C 3.21875 -4.75 3.640625 -4.625 3.984375 -4.375 C 4.328125 -4.132812 4.566406 -3.828125 4.703125 -3.453125 L 4.703125 -4.6875 L 5.09375 -4.6875 L 5.09375 0 L 4.703125 0 L 4.703125 -1.234375 C 4.566406 -0.859375 4.320312 -0.546875 3.96875 -0.296875 C 3.625 -0.0546875 3.207031 0.0625 2.71875 0.0625 C 2.28125 0.0625 1.890625 -0.0351562 1.546875 -0.234375 C 1.210938 -0.429688 0.945312 -0.710938 0.75 -1.078125 C 0.5625 -1.441406 0.46875 -1.863281 0.46875 -2.34375 Z M 4.703125 -2.34375 C 4.703125 -2.75 4.617188 -3.109375 4.453125 -3.421875 C 4.285156 -3.742188 4.054688 -3.988281 3.765625 -4.15625 C 3.472656 -4.320312 3.144531 -4.40625 2.78125 -4.40625 C 2.394531 -4.40625 2.054688 -4.320312 1.765625 -4.15625 C 1.484375 -4 1.257812 -3.765625 1.09375 -3.453125 C 0.9375 -3.140625 0.859375 -2.769531 0.859375 -2.34375 C 0.859375 -1.914062 0.9375 -1.546875 1.09375 -1.234375 C 1.257812 -0.929688 1.488281 -0.695312 1.78125 -0.53125 C 2.070312 -0.363281 2.40625 -0.28125 2.78125 -0.28125 C 3.144531 -0.28125 3.472656 -0.363281 3.765625 -0.53125 C 4.054688 -0.695312 4.285156 -0.9375 4.453125 -1.25 C 4.617188 -1.5625 4.703125 -1.925781 4.703125 -2.34375 Z M 4.703125 -2.34375 "/></g></g></g><g fill="#373643" fill-opacity="1"><g transform="translate(99.359793, 51.848864)"><g/></g></g><g fill="#373643" fill-opacity="1"><g transform="translate(101.46309, 51.848864)"><g><path d="M 2.265625 0.0625 C 1.742188 0.0625 1.316406 -0.0507812 0.984375 -0.28125 C 0.648438 -0.507812 0.46875 -0.835938 0.4375 -1.265625 L 0.828125 -1.265625 C 0.859375 -0.953125 1 -0.707031 1.25 -0.53125 C 1.5 -0.351562 1.835938 -0.265625 2.265625 -0.265625 C 2.617188 -0.265625 2.898438 -0.351562 3.109375 -0.53125 C 3.328125 -0.71875 3.4375 -0.941406 3.4375 -1.203125 C 3.4375 -1.390625 3.378906 -1.539062 3.265625 -1.65625 C 3.148438 -1.78125 3.007812 -1.875 2.84375 -1.9375 C 2.675781 -2 2.453125 -2.066406 2.171875 -2.140625 C 1.816406 -2.234375 1.535156 -2.320312 1.328125 -2.40625 C 1.117188 -2.5 0.9375 -2.632812 0.78125 -2.8125 C 0.632812 -2.988281 0.5625 -3.226562 0.5625 -3.53125 C 0.5625 -3.75 0.625 -3.953125 0.75 -4.140625 C 0.882812 -4.328125 1.070312 -4.472656 1.3125 -4.578125 C 1.550781 -4.691406 1.816406 -4.75 2.109375 -4.75 C 2.597656 -4.75 2.992188 -4.625 3.296875 -4.375 C 3.597656 -4.132812 3.757812 -3.796875 3.78125 -3.359375 L 3.390625 -3.359375 C 3.378906 -3.671875 3.257812 -3.925781 3.03125 -4.125 C 2.8125 -4.320312 2.503906 -4.421875 2.109375 -4.421875 C 1.773438 -4.421875 1.5 -4.332031 1.28125 -4.15625 C 1.0625 -3.988281 0.953125 -3.78125 0.953125 -3.53125 C 0.953125 -3.3125 1.007812 -3.132812 1.125 -3 C 1.25 -2.863281 1.398438 -2.757812 1.578125 -2.6875 C 1.765625 -2.613281 2.007812 -2.535156 2.3125 -2.453125 C 2.632812 -2.367188 2.894531 -2.285156 3.09375 -2.203125 C 3.289062 -2.117188 3.457031 -2 3.59375 -1.84375 C 3.738281 -1.6875 3.8125 -1.472656 3.8125 -1.203125 C 3.8125 -0.960938 3.742188 -0.742188 3.609375 -0.546875 C 3.484375 -0.359375 3.300781 -0.207031 3.0625 -0.09375 C 2.820312 0.0078125 2.554688 0.0625 2.265625 0.0625 Z M 2.265625 0.0625 "/></g></g></g><g fill="#373643" fill-opacity="1"><g transform="translate(105.419779, 51.848864)"><g><path d="M 2.765625 0.0625 C 2.328125 0.0625 1.929688 -0.03125 1.578125 -0.21875 C 1.234375 -0.414062 0.960938 -0.695312 0.765625 -1.0625 C 0.566406 -1.425781 0.46875 -1.851562 0.46875 -2.34375 C 0.46875 -2.832031 0.566406 -3.257812 0.765625 -3.625 C 0.960938 -3.988281 1.238281 -4.265625 1.59375 -4.453125 C 1.945312 -4.648438 2.34375 -4.75 2.78125 -4.75 C 3.21875 -4.75 3.613281 -4.648438 3.96875 -4.453125 C 4.320312 -4.265625 4.597656 -3.988281 4.796875 -3.625 C 4.992188 -3.257812 5.09375 -2.832031 5.09375 -2.34375 C 5.09375 -1.851562 4.988281 -1.425781 4.78125 -1.0625 C 4.582031 -0.695312 4.304688 -0.414062 3.953125 -0.21875 C 3.597656 -0.03125 3.203125 0.0625 2.765625 0.0625 Z M 2.765625 -0.28125 C 3.109375 -0.28125 3.425781 -0.351562 3.71875 -0.5 C 4.019531 -0.65625 4.257812 -0.890625 4.4375 -1.203125 C 4.613281 -1.515625 4.703125 -1.894531 4.703125 -2.34375 C 4.703125 -2.789062 4.613281 -3.171875 4.4375 -3.484375 C 4.257812 -3.796875 4.019531 -4.023438 3.71875 -4.171875 C 3.425781 -4.328125 3.113281 -4.40625 2.78125 -4.40625 C 2.4375 -4.40625 2.117188 -4.328125 1.828125 -4.171875 C 1.535156 -4.023438 1.300781 -3.796875 1.125 -3.484375 C 0.945312 -3.171875 0.859375 -2.789062 0.859375 -2.34375 C 0.859375 -1.894531 0.945312 -1.515625 1.125 -1.203125 C 1.300781 -0.890625 1.535156 -0.65625 1.828125 -0.5 C 2.117188 -0.351562 2.429688 -0.28125 2.765625 -0.28125 Z M 2.765625 -0.28125 "/></g></g></g><g fill="#373643" fill-opacity="1"><g transform="translate(110.652289, 51.848864)"><g><path d="M 1.09375 -6.375 L 1.09375 0 L 0.703125 0 L 0.703125 -6.375 Z M 1.09375 -6.375 "/></g></g></g><g fill="#373643" fill-opacity="1"><g transform="translate(112.134912, 51.848864)"><g><path d="M 4.671875 -4.6875 L 4.671875 0 L 4.28125 0 L 4.28125 -1.015625 C 4.144531 -0.660156 3.921875 -0.390625 3.609375 -0.203125 C 3.304688 -0.015625 2.957031 0.078125 2.5625 0.078125 C 2 0.078125 1.539062 -0.09375 1.1875 -0.4375 C 0.84375 -0.78125 0.671875 -1.285156 0.671875 -1.953125 L 0.671875 -4.6875 L 1.046875 -4.6875 L 1.046875 -1.984375 C 1.046875 -1.421875 1.1875 -0.992188 1.46875 -0.703125 C 1.75 -0.410156 2.128906 -0.265625 2.609375 -0.265625 C 3.117188 -0.265625 3.523438 -0.421875 3.828125 -0.734375 C 4.128906 -1.054688 4.28125 -1.535156 4.28125 -2.171875 L 4.28125 -4.6875 Z M 4.671875 -4.6875 "/></g></g></g><g fill="#373643" fill-opacity="1"><g transform="translate(117.177777, 51.848864)"><g><path d="M 2.734375 -0.265625 C 3.191406 -0.265625 3.578125 -0.378906 3.890625 -0.609375 C 4.203125 -0.835938 4.394531 -1.15625 4.46875 -1.5625 L 4.875 -1.5625 C 4.789062 -1.09375 4.570312 -0.707031 4.21875 -0.40625 C 3.863281 -0.113281 3.410156 0.0390625 2.859375 0.0625 L 2.859375 0.671875 C 3.210938 0.648438 3.484375 0.703125 3.671875 0.828125 C 3.859375 0.960938 3.953125 1.160156 3.953125 1.421875 C 3.953125 1.660156 3.867188 1.847656 3.703125 1.984375 C 3.535156 2.128906 3.300781 2.203125 3 2.203125 L 2.296875 2.203125 L 2.296875 1.921875 L 2.921875 1.921875 C 3.171875 1.921875 3.347656 1.878906 3.453125 1.796875 C 3.554688 1.710938 3.609375 1.585938 3.609375 1.421875 C 3.609375 1.097656 3.378906 0.9375 2.921875 0.9375 L 2.5625 0.9375 L 2.5625 0.0625 C 2.15625 0.0390625 1.789062 -0.0664062 1.46875 -0.265625 C 1.15625 -0.472656 0.910156 -0.753906 0.734375 -1.109375 C 0.554688 -1.460938 0.46875 -1.875 0.46875 -2.34375 C 0.46875 -2.832031 0.5625 -3.257812 0.75 -3.625 C 0.945312 -3.988281 1.210938 -4.265625 1.546875 -4.453125 C 1.890625 -4.648438 2.285156 -4.75 2.734375 -4.75 C 3.316406 -4.75 3.796875 -4.597656 4.171875 -4.296875 C 4.554688 -4.003906 4.789062 -3.613281 4.875 -3.125 L 4.46875 -3.125 C 4.394531 -3.519531 4.203125 -3.832031 3.890625 -4.0625 C 3.578125 -4.300781 3.191406 -4.421875 2.734375 -4.421875 C 2.390625 -4.421875 2.078125 -4.34375 1.796875 -4.1875 C 1.515625 -4.03125 1.285156 -3.796875 1.109375 -3.484375 C 0.941406 -3.171875 0.859375 -2.789062 0.859375 -2.34375 C 0.859375 -1.894531 0.941406 -1.515625 1.109375 -1.203125 C 1.285156 -0.890625 1.515625 -0.65625 1.796875 -0.5 C 2.078125 -0.34375 2.390625 -0.265625 2.734375 -0.265625 Z M 2.734375 -0.265625 "/></g></g></g><g fill="#373643" fill-opacity="1"><g transform="translate(122.203401, 51.848864)"><g><path d="M 0.46875 -2.34375 C 0.46875 -2.832031 0.5625 -3.253906 0.75 -3.609375 C 0.945312 -3.972656 1.210938 -4.253906 1.546875 -4.453125 C 1.890625 -4.648438 2.28125 -4.75 2.71875 -4.75 C 3.21875 -4.75 3.640625 -4.625 3.984375 -4.375 C 4.328125 -4.132812 4.566406 -3.828125 4.703125 -3.453125 L 4.703125 -4.6875 L 5.09375 -4.6875 L 5.09375 0 L 4.703125 0 L 4.703125 -1.234375 C 4.566406 -0.859375 4.320312 -0.546875 3.96875 -0.296875 C 3.625 -0.0546875 3.207031 0.0625 2.71875 0.0625 C 2.28125 0.0625 1.890625 -0.0351562 1.546875 -0.234375 C 1.210938 -0.429688 0.945312 -0.710938 0.75 -1.078125 C 0.5625 -1.441406 0.46875 -1.863281 0.46875 -2.34375 Z M 4.703125 -2.34375 C 4.703125 -2.75 4.617188 -3.109375 4.453125 -3.421875 C 4.285156 -3.742188 4.054688 -3.988281 3.765625 -4.15625 C 3.472656 -4.320312 3.144531 -4.40625 2.78125 -4.40625 C 2.394531 -4.40625 2.054688 -4.320312 1.765625 -4.15625 C 1.484375 -4 1.257812 -3.765625 1.09375 -3.453125 C 0.9375 -3.140625 0.859375 -2.769531 0.859375 -2.34375 C 0.859375 -1.914062 0.9375 -1.546875 1.09375 -1.234375 C 1.257812 -0.929688 1.488281 -0.695312 1.78125 -0.53125 C 2.070312 -0.363281 2.40625 -0.28125 2.78125 -0.28125 C 3.144531 -0.28125 3.472656 -0.363281 3.765625 -0.53125 C 4.054688 -0.695312 4.285156 -0.9375 4.453125 -1.25 C 4.617188 -1.5625 4.703125 -1.925781 4.703125 -2.34375 Z M 1.953125 -5.21875 C 1.972656 -5.4375 2.039062 -5.601562 2.15625 -5.71875 C 2.269531 -5.84375 2.414062 -5.90625 2.59375 -5.90625 C 2.6875 -5.90625 2.769531 -5.882812 2.84375 -5.84375 C 2.914062 -5.8125 3 -5.757812 3.09375 -5.6875 C 3.175781 -5.613281 3.25 -5.5625 3.3125 -5.53125 C 3.375 -5.5 3.445312 -5.484375 3.53125 -5.484375 C 3.632812 -5.484375 3.71875 -5.515625 3.78125 -5.578125 C 3.851562 -5.648438 3.898438 -5.75 3.921875 -5.875 L 4.171875 -5.875 C 4.148438 -5.675781 4.078125 -5.515625 3.953125 -5.390625 C 3.835938 -5.265625 3.695312 -5.203125 3.53125 -5.203125 C 3.414062 -5.203125 3.316406 -5.222656 3.234375 -5.265625 C 3.160156 -5.304688 3.078125 -5.363281 2.984375 -5.4375 C 2.898438 -5.5 2.828125 -5.546875 2.765625 -5.578125 C 2.710938 -5.609375 2.648438 -5.625 2.578125 -5.625 C 2.367188 -5.625 2.242188 -5.488281 2.203125 -5.21875 Z M 1.953125 -5.21875 "/></g></g></g><g fill="#373643" fill-opacity="1"><g transform="translate(127.677288, 51.848864)"><g><path d="M 2.765625 0.0625 C 2.328125 0.0625 1.929688 -0.03125 1.578125 -0.21875 C 1.234375 -0.414062 0.960938 -0.695312 0.765625 -1.0625 C 0.566406 -1.425781 0.46875 -1.851562 0.46875 -2.34375 C 0.46875 -2.832031 0.566406 -3.257812 0.765625 -3.625 C 0.960938 -3.988281 1.238281 -4.265625 1.59375 -4.453125 C 1.945312 -4.648438 2.34375 -4.75 2.78125 -4.75 C 3.21875 -4.75 3.613281 -4.648438 3.96875 -4.453125 C 4.320312 -4.265625 4.597656 -3.988281 4.796875 -3.625 C 4.992188 -3.257812 5.09375 -2.832031 5.09375 -2.34375 C 5.09375 -1.851562 4.988281 -1.425781 4.78125 -1.0625 C 4.582031 -0.695312 4.304688 -0.414062 3.953125 -0.21875 C 3.597656 -0.03125 3.203125 0.0625 2.765625 0.0625 Z M 2.765625 -0.28125 C 3.109375 -0.28125 3.425781 -0.351562 3.71875 -0.5 C 4.019531 -0.65625 4.257812 -0.890625 4.4375 -1.203125 C 4.613281 -1.515625 4.703125 -1.894531 4.703125 -2.34375 C 4.703125 -2.789062 4.613281 -3.171875 4.4375 -3.484375 C 4.257812 -3.796875 4.019531 -4.023438 3.71875 -4.171875 C 3.425781 -4.328125 3.113281 -4.40625 2.78125 -4.40625 C 2.4375 -4.40625 2.117188 -4.328125 1.828125 -4.171875 C 1.535156 -4.023438 1.300781 -3.796875 1.125 -3.484375 C 0.945312 -3.171875 0.859375 -2.789062 0.859375 -2.34375 C 0.859375 -1.894531 0.945312 -1.515625 1.125 -1.203125 C 1.300781 -0.890625 1.535156 -0.65625 1.828125 -0.5 C 2.117188 -0.351562 2.429688 -0.28125 2.765625 -0.28125 Z M 2.765625 -0.28125 "/></g></g></g></svg>